<svg width="1483" height="1448" viewBox="0 0 1483 1448" fill="none" xmlns="http://www.w3.org/2000/svg">
<rect width="1483" height="1448" fill="url(#paint0_linear_6_77)"/>
<g clip-path="url(#clip0_6_77)">
<path d="M187.83 1269.37H204.67C218.93 1269.37 229.97 1279.84 229.97 1293.46C229.97 1306.35 220.14 1317.71 204.67 1317.71H187.83V1269.37ZM204.43 1306.91C212 1306.91 217.8 1301.59 217.8 1293.46C217.8 1285.97 212.72 1280.08 204.43 1280.08H199.68V1306.91H204.43Z" fill="#0A1433"/>
<path d="M238.02 1269.37H270.01V1279.84H249.87V1288.54H268.48V1298.85H249.87V1307.55H270.9V1317.7H238.02V1269.36V1269.37Z" fill="#0A1433"/>
<path d="M303.28 1267.75C312.46 1267.75 318.83 1271.21 323.99 1276.61L315.85 1284.34C312.47 1281.04 308.12 1278.94 303.28 1278.94C294.66 1278.94 289.1 1285.39 289.1 1293.52C289.1 1301.65 294.66 1308.1 303.28 1308.1C308.11 1308.1 312.46 1306.01 315.85 1302.7L323.74 1310.43C318.91 1315.51 312.22 1319.29 303.28 1319.29C287.97 1319.29 277.1 1307.93 277.1 1293.51C277.1 1279.09 287.98 1267.73 303.28 1267.73V1267.75Z" fill="#0A1433"/>
<path d="M329.71 1269.37H361.7V1279.84H341.56V1288.54H360.17V1298.85H341.56V1307.55H362.59V1317.7H329.72V1269.36L329.71 1269.37Z" fill="#0A1433"/>
<path d="M368.3 1269.37H380.79L399.56 1298.05V1269.37H411.32V1317.71H398.99L380.14 1288.95V1317.71H368.3V1269.37Z" fill="#0A1433"/>
<path d="M427.6 1279.84H416.8V1269.37H450.48V1279.84H439.52V1317.71H427.6V1279.84Z" fill="#0A1433"/>
<path d="M455.96 1269.37H476.18C486.57 1269.37 493.34 1275.65 493.34 1284.76C493.34 1293.22 489.07 1297.97 481.9 1299.74L494.95 1317.71H480.13L467.8 1299.66V1317.71H455.96V1269.37ZM477.31 1290.32C479.97 1290.32 481.74 1287.58 481.74 1284.76C481.74 1281.94 479.65 1279.44 476.99 1279.44H467.81V1290.32H477.32H477.31Z" fill="#0A1433"/>
<path d="M520.09 1267.75H522.18L545.87 1317.7H533.14L530.72 1312.7H511.63L509.29 1317.7H496.56L520.09 1267.75ZM526.7 1304.25L521.14 1292H520.98L515.34 1304.25H526.7Z" fill="#0A1433"/>
<path d="M551.03 1269.37H562.87V1307.56H583.9V1317.71H551.03V1269.37Z" fill="#0A1433"/>
<path d="M589.62 1269.37H601.46V1317.71H589.62V1269.37Z" fill="#0A1433"/>
<path d="M607.02 1316.58L629.09 1280.25H609.75V1269.37H647.7V1270.5L624.82 1306.75H646.9V1317.71H607.02V1316.58Z" fill="#0A1433"/>
<path d="M654.96 1269.37H686.94V1279.84H666.8V1288.54H685.41V1298.85H666.8V1307.55H687.83V1317.7H654.96V1269.36V1269.37Z" fill="#0A1433"/>
<path d="M693.55 1269.37H710.39C724.65 1269.37 735.69 1279.84 735.69 1293.46C735.69 1306.35 725.86 1317.71 710.39 1317.71H693.55V1269.37ZM710.15 1306.91C717.72 1306.91 723.52 1301.59 723.52 1293.46C723.52 1285.97 718.44 1280.08 710.15 1280.08H705.4V1306.91H710.15Z" fill="#0A1433"/>
<path d="M762.81 1272.3H778.63C792.03 1272.3 802.4 1282.14 802.4 1294.93C802.4 1307.04 793.17 1317.71 778.63 1317.71H762.81V1272.3ZM778.4 1307.57C785.51 1307.57 790.96 1302.57 790.96 1294.93C790.96 1287.89 786.19 1282.37 778.4 1282.37H773.94V1307.57H778.4Z" fill="#0A1433"/>
<path d="M809.96 1272.3H821.09V1317.71H809.96V1272.3Z" fill="#0A1433"/>
<path d="M852.72 1270.78C861.12 1270.78 866.95 1273.88 871.72 1278.73L864 1285.84C860.9 1283.04 857.04 1281.3 852.72 1281.3C844.62 1281.3 839.4 1287.35 839.4 1295C839.4 1303.4 845.38 1308.7 852.95 1308.7C860.9 1308.7 864.76 1304.31 865.06 1299.92H852.12V1290.31H877.1V1294.62C877.1 1308.02 869.23 1319.22 852.73 1319.22C838.35 1319.22 828.13 1308.55 828.13 1295C828.13 1281.45 838.35 1270.78 852.73 1270.78H852.72Z" fill="#0A1433"/>
<path d="M884.35 1272.3H895.48V1317.71H884.35V1272.3Z" fill="#0A1433"/>
<path d="M910.77 1282.13H900.63V1272.29H932.27V1282.13H921.98V1317.7H910.78V1282.13H910.77Z" fill="#0A1433"/>
<path d="M950.27 1270.78H952.24L974.49 1317.7H962.53L960.26 1313.01H942.32L940.12 1317.7H928.16L950.26 1270.78H950.27ZM956.48 1305.07L951.26 1293.57H951.11L945.81 1305.07H956.48Z" fill="#0A1433"/>
<path d="M979.34 1272.3H990.47V1308.17H1010.22V1317.71H979.34V1272.3Z" fill="#0A1433"/>
<path d="M1033.38 1272.3H1044.5V1317.71H1033.38V1272.3Z" fill="#0A1433"/>
<path d="M1051.77 1272.3H1067.59C1080.99 1272.3 1091.35 1282.14 1091.35 1294.93C1091.35 1307.04 1082.12 1317.71 1067.59 1317.71H1051.77V1272.3ZM1067.36 1307.57C1074.47 1307.57 1079.92 1302.57 1079.92 1294.93C1079.92 1287.89 1075.15 1282.37 1067.36 1282.37H1062.89V1307.57H1067.36Z" fill="#0A1433"/>
<path d="M1098.92 1272.3H1128.97V1282.14H1110.05V1290.31H1127.53V1300H1110.05V1308.17H1129.8V1317.71H1098.92V1272.3Z" fill="#0A1433"/>
<path d="M1135.17 1272.3H1146.9L1164.53 1299.24V1272.3H1175.58V1317.71H1164L1146.29 1290.69V1317.71H1135.17V1272.3Z" fill="#0A1433"/>
<path d="M1190.87 1282.13H1180.73V1272.29H1212.37V1282.13H1202.08V1317.7H1190.88V1282.13H1190.87Z" fill="#0A1433"/>
<path d="M1217.51 1272.3H1228.64V1317.71H1217.51V1272.3Z" fill="#0A1433"/>
<path d="M1243.92 1282.13H1233.78V1272.29H1265.42V1282.13H1255.13V1317.7H1243.93V1282.13H1243.92Z" fill="#0A1433"/>
<path d="M1284.34 1295.76L1268.22 1272.3H1280.78L1289.86 1285.92L1299.02 1272.3H1311.51L1295.39 1295.76V1317.71H1284.34V1295.76Z" fill="#0A1433"/>
</g>
<g style="mix-blend-mode:darken">
<path d="M1041.87 270.463C1015.4 207.377 960.559 134.793 882 154.166C835.704 132.965 795.584 88.6769 737.694 91.1833C699.634 83.7674 676.986 113.189 645.574 124.399C606.708 129.815 566.002 103.44 530.242 124.744C444.206 173.701 390.802 283.536 403.994 381.805C404.547 433.773 443.838 478.441 450.106 527.432C424.767 597.164 471.512 666.206 464.887 734.432C452.924 782.192 430.886 839.415 446.115 884.209C453.96 904.905 443.09 921.714 461.367 940.098C467.383 953.332 457.709 968.44 467.624 981.869C478.126 998.506 478.689 1019.05 496.368 1030.58C504.811 1040.11 498.737 1066.81 513.851 1063.41C522.432 1063.59 519.361 1082.9 530.437 1075.87C546.586 1081.38 557.881 1108.43 575.802 1118.85C581.139 1123.97 586.338 1120.51 591.951 1117.77C607.179 1108.31 613.759 1142.34 630.253 1122.93C636.222 1116.68 641.134 1125.13 645.436 1128.91C666.634 1144.71 689.523 1117.55 705.465 1146.27C713.873 1155.8 722.902 1138.69 731.943 1141.55C744.285 1147.74 752.371 1131.8 764.931 1135.77C774.133 1132.77 783.565 1113.57 794.515 1128.21C809.962 1147.7 823.212 1102.48 842.812 1117.94C855.108 1125.38 861.399 1112.68 867.081 1103.6C882.092 1094.49 891.972 1082.72 899.563 1068.85C922.683 1065.24 919.29 1065.71 932.344 1042.46C933.184 1027.04 937.75 1042.72 944.284 1041.09C953.738 1031.91 948.873 1012.95 952.726 1000.38C966.908 986.318 970.681 966.497 973.511 946.572C973.603 924.083 1011.56 876.403 999.966 855.351C998.148 796.047 953.071 736.789 982.517 679.44C1000.3 629.069 1000.95 577.744 997.435 525.5C1037.11 450.847 1095.3 351.796 1041.84 270.463H1041.87ZM976.812 903.341C976.179 900.409 980.573 901.996 979.285 904.054C976.087 910.401 972.073 910.424 976.812 903.341ZM869.152 306.439C886.589 283.559 896.86 252.148 926.708 242.329C899.264 254.654 888.464 293.849 869.152 306.439ZM887.567 261.357C887.636 260.414 888.291 260.276 889.028 260.265C889.108 260.978 888.188 262.45 887.567 261.357ZM754.752 108.177C775.49 109.775 849.437 132.264 832.023 154.074C806.086 139.967 778.159 122.951 754.752 108.177ZM819.658 183.657C806.362 161.916 788.545 144.279 770.774 126.86C794.848 140.3 815.276 164.675 819.658 183.657ZM770.59 126.722C769.543 126.745 768.497 126.745 767.795 125.699C769.014 125.354 769.843 125.94 770.59 126.722ZM699.427 113.753C759.295 108.717 815.483 175.575 821.015 231.257C785.531 73.8106 624.134 148.268 699.427 113.753ZM807.316 220.277C798.552 208.227 798.264 187.038 787.096 173.839C794.561 176.851 806.454 206.077 807.316 220.277ZM786.682 171.608C784.864 170.826 784.14 169.263 783.081 166.733C785.842 168.113 786.429 169.757 786.682 171.608ZM627.366 138.426C700.577 117.869 801.646 137.897 795.504 231.993C785.554 71.4192 606.259 169.412 627.366 138.426ZM784.381 285.571C771.844 308.623 807.73 191.832 727.975 154.592C775.099 169.297 807.88 242.616 786.429 292.584C782.932 290.009 785.301 287.778 784.381 285.559V285.571ZM555.339 135.242C587.81 130.286 624.881 179.38 677.86 153.212C752.739 136.046 794.331 239.903 766.875 298.805C756.328 327.824 749.553 328.732 762.24 298.276C775.548 264.99 775.858 219.46 752.624 193.051C756.638 214.701 756.397 242.202 749.012 261.587C739.741 249.802 744.595 276.086 736.854 282.846C776.238 69.8785 651.934 219.782 555.339 135.242ZM703.705 349.129C693.307 345.829 691.674 327.468 692.56 317.235C697.632 326.778 703.533 339.08 703.705 349.129ZM475.802 688.591C459.193 667.54 447.772 485.983 470.638 560.544C469.568 603.223 478.402 646.085 475.802 688.591ZM445.874 308.244C418.2 298.379 414.484 355.521 424.629 373.963C430.346 360.143 450.417 350.52 464.392 349.462C481.059 351.9 426.309 385.38 459.044 377.838C460.573 373.94 471.742 369.997 466.796 377.148C455.075 392.198 420.166 461.034 463.437 440.752C469.499 437.073 466.405 448.317 473.594 446.19C460.205 457.895 453.73 471.91 453.914 489.133C420.212 431.669 404.639 353.843 423.985 288.089C447.921 236.224 478.321 134.414 550.002 147.176C496.403 155.845 580.242 150.763 595.206 227.658C578.068 203.651 556.294 154.776 519.51 163.721C503.568 155.385 462.046 197.558 478.896 193.913C538.627 135.069 573.421 257.713 562.85 250.757C550.336 187.647 480.507 155.638 468.372 235.017C468.119 247.974 490.905 247.376 489.789 259.173C460.32 245.778 479.644 256.954 489.375 271.602C474.882 271.268 463.092 235.81 454.293 250.952C438.409 267.255 486.718 309.693 452.234 297.091C448.933 293.999 446.414 298.517 449.957 301.001C463.598 313.326 479.103 321.903 498.162 322.892C480.656 331.354 460.7 317.327 445.874 308.255V308.244ZM595.206 227.693C595.045 228.291 595.424 229.843 594.596 229.314C594.136 228.52 594.619 228.084 595.206 227.693ZM586.223 233.177C585.728 232.878 585.981 233.027 586.223 233.177C585.59 233.349 585.705 233.924 586.223 233.177ZM585.291 232.349C574.663 212.459 566.669 190.74 547.863 176.678C568.176 188.038 579.344 210.619 585.291 232.349ZM542.641 227.279C536.027 214.103 528.183 201.743 518.567 190.544C532.059 199.19 536.867 213.551 542.641 227.279ZM506.099 325.03C505.466 326.548 501.797 326.985 502.142 324.927C502.292 323.294 506.524 323.11 506.099 325.03ZM507.238 847.624C500.187 845.175 503.016 835.345 508.974 841.945C516.002 842.29 519.05 836.644 522.938 832.436C526.515 820.927 512.989 830.631 508.135 831.08C510.872 822.054 524.663 816.731 532.151 821.721C534.498 829.205 523.237 841.611 516.382 846.82C536.131 849.705 553.672 844.888 569.545 832.62C599.991 808.51 611.067 768.752 641.065 743.871C625.997 776.8 569.211 879.369 507.238 847.624ZM578.401 952.194C566.646 958.287 566.416 944.916 562.62 938.914C559.848 937.925 557.973 939.995 556.283 941.858C552.556 948.859 539.19 938.707 547.702 934.338C568.107 904.79 573.513 865.032 607.939 847.015C637.499 836.771 644.515 789.252 679.562 823.503C686.579 832.091 651.072 848.199 640.145 847.222C631.944 851.028 631.955 835.989 625.778 841.209C610.688 860.421 644.745 858.558 651.451 867.883C626.48 889.544 610.63 932.05 578.413 952.194H578.401ZM751.899 802.83C820.601 812.776 684.554 836.437 670.292 809.706C657.789 793.586 738.281 810.269 751.899 802.83ZM691.743 795.644C709.111 787.32 726.399 788.7 744.549 795.242C727.618 799.427 709.778 801.29 691.743 795.644ZM614.61 992.872C606.202 1002.3 606.949 982.478 598.587 988.963C579.563 995.574 613.414 971.602 609.549 964.772C604.638 967.37 588.972 991.918 598.219 967.727C611.573 951.55 608.33 924.014 624.318 911.32C631.598 926.256 613.448 942.363 616.128 959.15C664.23 913.401 633.105 971.901 614.61 992.86V992.872ZM701.163 1072.8C698.219 1059.4 695.378 1046 703.878 1033.32C703.901 1046.57 701.991 1059.64 701.163 1072.8ZM807.213 1028.85C797.114 1026.46 793.376 1011.01 788.741 1003.25C770.705 1002.84 777.365 952.332 764.494 936.27C760.227 929.118 758.985 935.339 759.514 940.225C737.038 923.968 747.977 928.911 739.557 945.502C718.083 930.418 725.237 920.265 720.855 895.523C710.135 907.894 718.923 927.532 717.749 942.605C714.839 969.923 708.134 915.505 712.32 907.584C702.613 923.278 691.156 963.473 685.014 922.668C678.516 940.455 665.093 947.365 674.823 923.036C664.84 934.442 663.919 946.273 659.02 959.092C653.786 975.821 657.363 1008.7 637.718 1014.72C618.578 1032.06 636.073 984.95 642.997 976.798C658.962 940.248 667.531 887.325 700.048 866.02C696.355 887.544 733.933 878.012 745.895 880.956C765.667 875.989 770.797 921.358 777.135 932.878C784.209 965.151 810.042 995.608 807.213 1028.86V1028.85ZM811.906 1012.54C808.892 1000.92 803.969 989.906 801.772 978.017C806.684 989.043 814.08 999.276 811.906 1012.54ZM838.74 988.043C831.896 990.676 833.254 981.122 829.677 991.699C813.413 985.019 802.06 966.543 796.309 949.837C775.732 912.16 837.728 979.374 838.74 988.043ZM814.482 909.331C824.202 918.598 828.906 928.681 829.285 940.777C823.672 931.119 817.484 921.726 814.482 909.331ZM884.933 935.293C877.146 933.189 846.447 901.271 861.986 926.118C866.552 929.797 866.713 939.11 858.973 935.488C861.595 939.34 866.805 950.205 857.972 944.996C823.88 923.945 816.955 877.541 779.332 864.974C787.498 857.696 805.373 868.791 813.263 856.65C815.563 854.132 807.777 844.187 802.842 846.555C760.112 848.441 733.668 819.778 791.248 812.201C803.567 813.822 800.519 849.142 818.934 846.969C852.83 848.579 872.706 907.986 884.933 935.304V935.293ZM931.873 823.457C883.23 898.317 820.555 780.479 791.374 742.296C830.286 765.969 841.179 822.422 886.095 838.541C899.644 850.959 940.661 823.02 918.243 827.492C920.463 821.123 936.474 810.384 931.873 823.457ZM957.258 581.734C966.563 614.881 903.635 851.809 863.079 779.766C851.255 742.135 745.032 733.42 787.533 717.749C756.5 714.058 735.693 751.425 705.569 736.812C690.846 721.589 646.287 724.13 652.302 698.364C655.189 686.591 664.138 677.174 675.249 678.301C650.669 665.01 634.405 726.154 672.374 726.395C643.756 735.823 615.357 741.733 591.502 760.968C510.815 875.276 451.797 537.779 502.74 492.583C529.011 469.07 529.184 442.316 520.131 410.146C512.759 371.089 526.124 300.472 577.907 306.634C625.801 331.963 687.223 338.379 730.333 367.375C756.293 357.809 784.945 337.907 813.102 327.031C854.199 316.12 801.979 356.568 892.547 323.961C945.146 331.653 931.689 414.216 919.646 452.514C922.085 497.262 977.525 530.076 957.258 581.723V581.734ZM975.938 653.179C947.953 752.276 973.637 576.79 978.111 546.529C999.034 563.246 980.93 623.677 975.938 653.179ZM1028.67 443.098C1007.41 461.551 995.1 517.325 975.408 520.97C1004.43 490.134 1002.33 451.778 983.218 416.102C1005.51 449.594 1002.73 429.197 985.542 405.202C973.948 390.025 964.297 369.479 958.178 352.912C961.169 358.442 968.818 354.602 970.405 360.523C971.038 362.236 969.818 365.904 972.924 365.041C984.081 345.404 987.842 389.163 1005.3 377.424C1015.02 382.897 1014.07 398.292 1018.13 407.904C1021.35 419.62 1039.18 428.047 1028.66 443.086L1028.67 443.098ZM1046.71 337.264C1044.08 356.407 1038.26 373.963 1039.98 393.636C1038.54 348.968 1005.54 296.528 958.891 291.205C986.278 285.927 1009.1 307.991 1022.95 329.859C1019.68 311.682 1004.41 303.357 990.407 294.573C1017.21 305.243 1034.24 319.638 1007.78 285.847C991.833 273.234 988.371 265.761 988.958 261.265C1011.36 262.231 1022.8 284.168 1039.31 295.332C1015.67 220.783 933.276 239.432 894.733 292.55C913.171 253.482 967.426 227.325 1004.62 234.568C994.491 208.25 950.794 223.542 930.481 231.268C918.461 231.751 884.542 270.682 891.489 252.93C902.646 211.918 1030.45 217 957.12 200.812C928.227 199.455 901.358 212.7 878.986 228.67C888.349 204.387 920.256 201.858 942.558 197.052C945.675 190.728 897.746 203.812 885.186 209.124C895.733 199.317 909.789 198.052 922.51 193.476C906.591 190.728 892.95 197.972 877.33 203.261C903.417 185.738 932.31 186.359 960.824 196.558C950.541 182.968 936.462 176.035 921.452 168.63C942.765 169.044 964.32 181.818 979.768 196.489C999.781 212.93 1009.34 235.166 1016.85 258.276C1037.26 280.259 1052.06 306.577 1046.71 337.275V337.264Z" fill="#0A1433"/>
<path d="M871.142 791.356C850.518 736.789 745.182 734.938 787.544 717.738C756.511 714.047 735.704 751.414 705.58 736.8C690.857 721.589 646.298 724.119 652.314 698.353C655.201 686.568 664.149 677.175 675.26 678.29C650.68 664.987 634.416 726.142 672.385 726.384C556.719 743.434 580.92 848.027 515.243 739.111C489.421 664.976 462.747 564.626 502.74 492.571C529.022 469.059 529.206 442.316 520.143 410.146C508.065 361.144 541.445 276.545 601.796 316.292C650.887 334.113 703.97 356.614 736.624 366.007C761.791 356.384 827.1 303.013 830.171 337.999C855.901 342.978 889.637 310.681 910.088 329.721C956.062 373.216 907.96 431.508 925.075 477.728C994.26 553.611 949.436 734.903 871.153 791.356H871.142Z" fill="white"/>
<path d="M595.298 227.635C578.171 203.939 564.391 168.883 529.804 161.916C509.319 161.525 478.724 171.355 474.882 196.006C524.099 149.832 560.4 209.17 567.623 257.494C520.189 115.822 429.966 229.946 488.914 254.723C494.355 267.049 475.952 251.607 471.638 249.779C495.356 277.074 483.221 272.74 464.081 250.32C443.654 235.166 453.718 287.123 465.473 294.539C472.719 302.737 456.007 299.494 452.246 297.091C439.087 302.61 486.303 325.122 498.174 322.88C466.324 338.586 437.086 277.776 420.373 328.1C417.406 416.32 430.599 337.436 468.303 352.256C465.519 358.695 434.026 384.955 459.066 377.861C488.73 355.384 407.249 457.251 459.101 444.489C467.417 433.923 465.657 446.455 473.617 446.214C456.731 451.686 456.26 496.975 448.864 483.362C404.983 394.889 401.452 287.399 464.392 206.905C480.069 175.598 509.584 133.54 550.002 147.187C542.848 149.636 534.589 148.188 528.459 153.718C566.094 161.076 583.841 193.821 595.286 227.635H595.298Z" fill="white"/>
<path d="M685.026 922.668C678.527 940.455 665.104 947.365 674.835 923.036C649.818 948.032 666.588 998.276 637.74 1014.71C604.971 1048.03 685.693 858.237 700.059 866.009C695.136 892.522 747.54 871.965 755.407 883.68C772.522 900.984 771.625 923.703 781.551 944.606C786.336 973.108 812.009 999.299 807.224 1028.86C797.125 1026.47 793.387 1011.03 788.752 1003.27C782.138 1011.42 781.471 990.285 776.491 984.697C773.742 978.994 766.714 916.713 759.939 938.27C756.017 944.387 750.772 926.233 742.295 931.464C741.915 934.66 744.48 944.008 739.569 945.502C718.094 930.418 725.249 920.265 720.866 895.523C707.535 909.791 723.638 936.373 716.334 951.125C708.11 942.662 712.021 923.922 711.906 912.252C708.34 897.592 692.399 977.707 685.026 922.668ZM759.801 915.333C758.317 908.009 751.807 901.375 745.504 900.352C748.172 907.285 752.831 911.918 759.801 915.333Z" fill="white"/>
<path d="M992.489 266.002C992.42 248.756 1029.02 287.951 1039.31 295.321C1020.3 237.132 959.995 230.877 917.196 270.233C863.677 319.741 936.865 229.325 979.515 236.281C981.688 236.074 984.368 237.086 984.472 232.924C987.071 223.45 1008.38 241.961 1003.92 230.877C970.083 188.026 875.65 275.062 891.489 252.918C902.634 211.907 1030.45 216.989 957.108 200.8C928.618 199.754 902.416 211.688 879.975 228.153C887.429 201.593 926.03 203.732 946.883 194.902C910.26 199.202 858.386 214.908 922.499 193.442C906.591 190.694 892.938 197.937 877.33 203.226C897.102 190.648 917.277 186.509 939.809 190.797C980.619 204.502 939.51 176.081 921.452 168.596C959.351 170.872 992.535 202.456 1009.49 235.408C1050.91 321.328 1052.74 290.515 1039.97 393.624C1038.54 348.956 1005.56 296.517 958.891 291.193C986.278 285.916 1009.1 307.968 1022.95 329.848C1019.68 311.67 1004.41 303.346 990.407 294.562C1003.3 297.103 1012.95 305.703 1024.03 312.188C1022.45 292.366 965.022 252.631 1000.54 270.923C1000.82 268.969 995.388 265.531 992.489 266.002Z" fill="white"/>
<path d="M672.373 834.126C664.046 842.025 638.591 855.259 630.931 841.991C623.535 834.103 617.324 855.811 629.194 858.03C635.141 862.56 660.86 863.112 649.116 874.287C617.198 890.625 612.677 936.063 578.401 952.182C566.646 958.288 566.416 944.916 562.631 938.903C559.859 937.914 557.985 939.984 556.294 941.846C552.567 948.848 539.202 938.696 547.713 934.327C559.215 924.267 559.595 908.975 566.151 896.742C578.792 857.501 622.327 848.579 642.284 814.558C636.935 839.346 653.521 839.323 672.373 834.126Z" fill="white"/>
<path d="M801.14 834.862C819.163 846.532 806.143 847.406 828.641 846.555C845.434 856.719 891.397 925.888 881.459 934.361C863.286 920.116 850.403 902.019 864.631 935.281C853.612 936.097 865.034 939.248 862.722 945.916C839.913 937.385 822.902 910.906 813.182 888.613C811.618 876.966 761.975 863.916 787.199 862.755C796.642 862.606 806.695 864.779 813.274 856.638C817.197 840.91 759.283 850.177 754.775 826.515C763.781 825.641 785.531 850.924 801.151 834.851L801.14 834.862Z" fill="white"/>
<path d="M1001.71 379.781C1012.74 370.376 1014.78 400.856 1018.14 407.904C1021.36 419.631 1039.19 428.048 1028.67 443.086C1007.41 461.54 995.111 517.314 975.408 520.958C1004.43 490.122 1002.33 451.767 983.218 416.09C1023.97 468.093 970.347 379.321 958.489 357.373C954.693 348.14 962.79 359.097 967.299 356.97C969.128 356.499 969.795 358.856 970.416 360.511C971.049 362.213 969.841 365.881 972.935 365.03C976.42 364.581 977.732 360.488 977.732 356.729C982.551 364.57 999.459 385.035 1001.71 379.77V379.781Z" fill="white"/>
<path d="M753.36 326.571C767.783 284.214 785.094 229.44 752.612 193.051C756.063 203.169 757.708 274.361 744.066 256.425C722.005 324.306 779.079 153.04 699.403 157.236C659.261 165.032 625.537 173.85 586.832 153.982C573.858 152.913 536.073 122.203 570.419 138.334C567.957 133.781 570.073 133.046 573.651 133.804C620.809 187.394 689.396 127.205 736.946 167.699C782.012 208.733 786.739 276.798 753.36 326.571Z" fill="white"/>
<path d="M475.802 688.592C459.193 667.54 447.771 485.983 470.638 560.544C469.568 603.223 478.402 646.085 475.802 688.592Z" fill="white"/>
<path d="M963.435 691.5C960.87 647.718 975.316 602.154 974.672 557.382C1000.48 506.426 977.306 678.957 963.435 691.5Z" fill="white"/>
<path d="M625.295 914.091C629.286 928.716 613.712 943.249 616.139 959.161C649.875 927.647 646.459 942.099 628.493 974.775C602.222 1010.11 616.99 989.607 598.587 988.963C581.667 995.815 607.329 974.326 609.273 968.175C611.228 956.885 600.439 979.374 595.677 977.592C598.323 970.797 620.292 901.306 625.283 914.091H625.295Z" fill="white"/>
<path d="M726.157 823.549C710.089 824.721 655.224 813.833 671.81 803.129C704.579 807.671 744.365 796.737 773.638 808.499C759.617 819.41 739.017 823.997 726.157 823.549Z" fill="white"/>
<path d="M929.878 815.766L928.366 813.891L927.35 816.075C922.932 825.57 918.129 831.906 913.123 835.77C908.151 839.608 902.922 841.054 897.493 840.689C886.481 839.95 874.4 831.748 862.151 819.876C849.968 808.067 837.911 792.928 826.922 778.831C825.792 777.382 824.673 775.943 823.566 774.518C813.954 762.158 805.235 750.945 798.206 744.246L797.796 743.855L797.23 743.833C796.247 743.794 795.254 743.927 794.46 744.461C793.577 745.055 793.198 745.965 793.157 746.892C793.119 747.751 793.36 748.663 793.707 749.543C794.063 750.444 794.579 751.432 795.209 752.479C797.706 756.632 802.35 762.305 807.495 768.351C809.028 770.153 810.609 771.992 812.2 773.842C815.991 778.252 819.84 782.728 823.235 786.929C828.096 792.944 831.842 798.177 833.187 801.698L833.236 801.828L833.308 801.946C844.895 820.891 860.931 838.811 882.781 846.654C887.858 849.355 894.207 849.861 900.539 848.948C906.931 848.025 913.459 845.636 918.949 842.381C924.415 839.14 928.997 834.954 931.317 830.344C932.485 828.022 933.095 825.558 932.909 823.051C932.721 820.533 931.737 818.073 929.878 815.766Z" fill="#0A1433" stroke="#0A1433" stroke-width="3"/>
<path d="M821.004 231.268C807.316 164.583 743.158 104.773 674.444 128.665C732.748 75.7767 817.611 172.505 821.004 231.268Z" fill="white"/>
<path d="M516.562 845.821L516.319 845.782L516.086 845.86C514.754 846.307 513.78 846.034 512.909 845.41C511.96 844.731 511.154 843.652 510.27 842.451L510.193 842.347C509.392 841.258 508.473 840.009 507.36 839.325C506.747 838.949 506.038 838.716 505.236 838.772C504.445 838.827 503.663 839.155 502.88 839.719L502.75 839.813L502.656 839.942C502.112 840.69 501.811 841.467 501.755 842.257C501.699 843.046 501.892 843.777 502.224 844.428C502.871 845.697 504.08 846.733 505.253 847.523L505.31 847.562L505.373 847.592C522.556 855.963 537.746 856.424 551.399 851.683C565.009 846.957 576.993 837.095 587.873 825.001C598.756 812.903 608.601 798.495 617.901 784.592C618.723 783.364 619.54 782.139 620.354 780.921C628.765 768.322 636.75 756.363 644.733 747.064L644.74 747.056L644.746 747.049C645.681 745.915 646.241 744.762 645.97 743.717C645.664 742.536 644.532 742.159 643.678 742.107C642.77 742.052 641.731 742.298 640.82 742.766C639.964 743.206 639.13 743.888 638.625 744.826C628.709 753.71 620.18 765.142 611.972 777.07C609.734 780.322 607.521 783.608 605.31 786.892C599.349 795.745 593.4 804.579 587.007 812.667C578.251 823.742 568.735 833.316 557.373 839.479C546.037 845.628 532.81 848.411 516.562 845.821Z" fill="#0A1433" stroke="#0A1433" stroke-width="2"/>
<path d="M795.503 231.981C793.801 157.167 727.675 115.638 658.076 143.497C649.104 147.199 617.761 148.901 642.732 143.646C567.37 144.842 804.245 80.9965 795.492 231.981H795.503ZM650.887 142.634C650.209 143.002 651.52 143.52 651.267 142.818C651.209 142.715 651.014 142.692 650.887 142.634Z" fill="white"/>
<path d="M786.428 292.596C768.6 284.686 810.157 200.478 727.975 154.592C775.099 169.297 807.88 242.616 786.428 292.596Z" fill="white"/>
<path d="M754.751 108.177C775.49 109.775 849.437 132.264 832.023 154.074C806.085 139.967 778.158 122.951 754.751 108.177Z" fill="white"/>
<path d="M801.14 834.862C790.397 845.371 763.229 836.644 759.295 824.043C777.813 812.534 803.728 802.439 801.14 834.862Z" fill="white"/>
<path d="M831.689 986.042C822.419 1005.75 792.663 948.089 791.19 937.098C798.575 937.431 855.062 997.298 831.689 986.042Z" fill="white"/>
<path d="M672.373 834.126C653.475 839.381 636.993 839.266 642.284 814.546C655.201 803.313 667.75 817.651 679.574 823.48C688.108 827.067 675.076 830.344 672.373 834.126Z" fill="white"/>
<path d="M871.141 791.356C906.338 772.42 919.657 734.604 935.013 700.974C941.684 721.785 890.764 807.475 871.141 791.356Z" fill="white"/>
<path d="M744.561 795.231C727.63 799.427 709.79 801.278 691.754 795.644C709.123 787.32 726.41 788.7 744.561 795.231Z" fill="white"/>
<path d="M516.404 846.808C494.55 846.785 539.443 829.321 518.153 827.079C495.528 838.794 522.098 811.258 532.174 821.709C534.555 829.183 523.237 841.611 516.404 846.797V846.808Z" fill="#0A1433"/>
<path d="M926.708 242.317C899.092 257.333 890.224 286.295 869.646 308.232C883.012 284.341 898.01 252.619 926.708 242.317Z" fill="white"/>
<path d="M770.671 126.802C794.779 140.231 815.253 164.652 819.647 183.657C806.396 161.962 788.223 143.922 770.671 126.802Z" fill="white"/>
<path d="M692.571 317.246C697.644 326.789 703.544 339.092 703.717 349.14C693.319 345.841 691.674 327.479 692.571 317.246Z" fill="white"/>
<path d="M585.452 232.591C574.697 212.654 566.784 190.786 547.874 176.667C568.348 187.98 579.425 211.148 585.452 232.591Z" fill="white"/>
<path d="M703.878 1033.31C703.901 1046.55 701.991 1059.63 701.163 1072.79C698.218 1059.38 695.377 1045.99 703.878 1033.31Z" fill="white"/>
<path d="M786.693 171.689C797.551 185.566 805.556 202.755 807.316 220.265C799.115 207.262 796.274 185.888 786.693 171.689Z" fill="white"/>
<path d="M518.578 190.544C532.07 199.19 536.878 213.551 542.652 227.279C536.039 214.103 528.194 201.743 518.578 190.544Z" fill="white"/>
<path d="M829.297 940.765C823.684 931.108 817.496 921.714 814.494 909.32C824.213 918.587 828.917 928.67 829.297 940.765Z" fill="white"/>
<path d="M811.917 1012.54C808.904 1000.92 803.981 989.906 801.784 978.017C806.695 989.043 814.091 999.276 811.917 1012.54Z" fill="white"/>
<path d="M830.159 338.011C821.763 335.7 833.553 327.537 826.203 324.375C834.749 325.582 835.876 329.514 830.159 338.011Z" fill="white"/>
<path d="M730.321 367.387C724.248 364.892 718.738 361.144 710.595 359.408C718.336 358.396 727.641 358.35 730.321 367.387Z" fill="white"/>
<path d="M973.395 909.032C975.811 907.101 976.075 902.272 978.295 901.8C981.297 903.617 976.881 909.584 973.395 909.032Z" fill="white"/>
<path d="M504.327 326.364C501.176 326.743 501.774 323.317 504.327 323.731C506.996 323.478 506.248 325.858 504.327 326.364Z" fill="white"/>
<path d="M786.75 171.643C784.864 170.872 784.151 169.297 783.07 166.733C785.957 168.067 786.359 170.056 786.75 171.643Z" fill="white"/>
<path d="M770.751 126.722C769.647 126.745 768.531 126.802 767.783 125.699C769.118 125.193 769.934 126.331 770.751 126.722Z" fill="white"/>
<path d="M818.174 325.49C818.795 325.467 819.255 325.49 818.577 324.881C817.829 324.823 817.588 324.915 818.174 325.49Z" fill="white"/>
<path d="M889.039 260.185C889.108 260.909 888.234 262.484 887.555 261.357C887.498 260.231 888.751 260.414 889.039 260.185Z" fill="white"/>
<path d="M585.383 232.66C585.946 232.936 586.464 233.211 585.716 233.66C585.578 233.361 585.601 232.637 585.383 232.66Z" fill="white"/>
<path d="M595.205 227.658C595.033 228.268 595.424 229.843 594.596 229.314C593.998 228.498 594.964 227.888 595.205 227.658Z" fill="white"/>
<path d="M879.975 228.164C879.803 228.658 879.527 229.084 878.986 228.658C879.032 228.222 879.389 227.095 879.975 228.164Z" fill="white"/>
<path d="M759.79 915.333C752.819 911.918 748.161 907.273 745.492 900.352C751.784 901.375 758.306 908.009 759.79 915.333Z" fill="#0A1433"/>
<path d="M999.494 269.348C996.377 269.819 994.042 268.428 992.5 266.002C995.664 265.416 997.55 267.704 999.494 269.348Z" fill="#0A1433"/>
<path d="M999.425 269.405C1000.16 269.337 1001.73 270.279 1000.54 270.923C999.436 270.923 999.551 269.854 999.425 269.405Z" fill="#0A1433"/>
<path d="M1001.71 379.781C1002.55 379.505 1003.85 380.494 1002.92 381.195C1001.82 381.299 1001.93 380.172 1001.71 379.781Z" fill="#0A1433"/>
<path d="M650.887 142.634C651.255 142.715 651.37 142.864 651.232 143.221C650.899 143.071 650.416 142.968 650.887 142.634Z" fill="#0A1433"/>
<path d="M669.958 566.833C669.866 566.557 669.785 566.442 670.142 566.534L669.958 566.833Z" fill="white"/>
<path d="M459.446 561.729C456.835 555.83 454.063 550.001 451.82 543.942C448.68 535.468 446.069 526.868 445.275 517.808C445.022 514.934 444.942 512.048 445.229 509.174C445.344 507.978 445.068 507.484 443.976 507.024C436.545 503.885 429.161 500.666 421.754 497.17H444.884L445.011 496.664L406.962 474.589L407.054 474.359C410.539 474.727 414.024 475.084 417.509 475.452C424.318 476.164 431.128 476.889 437.926 477.613C441.71 478.016 445.494 478.406 449.267 478.889C450.693 479.073 451.107 478.786 450.888 477.234C450.129 471.945 449.52 466.645 448.864 461.344C449.428 461.183 449.451 461.724 449.704 461.942C450.003 462.103 450.129 462.379 450.198 462.678C450.256 462.609 450.175 462.574 450.175 462.517C450.049 462.207 450.175 461.873 450.026 461.574C447.875 453.583 445.724 445.593 443.573 437.602C443.516 437.406 443.493 437.2 443.677 436.901L448.404 445.938C448.507 446.007 448.611 446.156 448.749 446.007C448.853 445.892 448.807 445.742 448.715 445.616C447.254 438.625 445.804 431.635 444.321 424.644C440.559 406.973 436.775 389.313 433.014 371.641C432.531 369.364 432.117 367.088 431.668 364.8C431.507 364.467 431.668 364.386 431.967 364.409C436.143 373.688 440.341 382.966 444.505 392.244C452.384 409.778 460.251 427.312 468.119 444.845C472.535 454.664 476.964 464.483 481.335 474.325C481.76 475.291 482.163 475.544 483.244 475.44C489.213 474.865 495.195 474.808 501.176 475.302C502.59 475.417 503.58 475.038 504.626 474.037C517.566 461.517 530.541 449.053 543.745 436.694C536.269 450.169 528.792 463.644 521.235 477.257C524.859 477.809 528.344 478.349 531.817 478.878C533.267 479.096 534.739 479.211 536.154 479.579C538.627 480.223 540.893 479.786 543.262 478.947C548.921 476.969 554.672 475.222 560.377 473.382C561.09 473.692 561.803 474.014 561.688 475.003C558.422 477.314 555.155 479.625 551.647 482.12C554.212 482.58 556.558 483.04 558.916 483.431C570.062 485.293 581.196 487.156 592.411 488.547C602.831 489.846 613.298 491.088 623.788 490.812C648.207 490.168 672.615 490.755 697.022 490.996C714.644 491.169 732.276 491.594 749.898 491.916C750.473 491.916 751.048 491.916 752.014 491.916C742.398 483.316 733.07 474.969 723.73 466.622C724.294 466.3 724.673 466.759 725.065 466.955C741.915 475.153 758.766 483.373 775.605 491.594C776.387 491.973 777.169 492.249 778.078 492.249C800.933 492.33 823.787 492.33 846.642 491.732C856.971 491.456 867.3 491.077 877.629 490.651C878.549 490.617 879.101 490.295 879.653 489.582C887.382 479.568 895.135 469.576 902.887 459.585C903.232 459.137 903.462 458.527 904.429 458.343C903.739 460.907 903.083 463.333 902.427 465.759C900.368 473.279 898.31 480.786 896.251 488.306C896.09 488.881 895.607 489.708 896.895 489.513C902.117 488.72 907.316 489.685 912.526 489.685C925.052 489.697 937.106 487.053 948.965 483.304C954.946 481.407 960.858 479.246 966.805 477.234C967.644 476.946 967.909 476.544 967.943 475.636C968.219 469.553 968.587 463.483 968.956 456.929C969.565 458.723 970.071 460.102 970.508 461.482C971.751 465.403 972.993 469.323 974.178 473.256C974.5 474.313 974.902 474.532 976.006 474.187C981.159 472.589 986.381 471.336 991.822 471.336C998.884 471.336 1004.87 473.715 1010.13 478.567C1011.8 480.108 1013.05 481.499 1013.64 483.592C1013.83 484.259 1014.42 484.075 1014.87 484.086C1022.33 484.316 1029.77 484.546 1037.22 484.776C1049.29 485.144 1061.36 485.523 1073.43 485.903C1082.18 486.179 1090.94 486.455 1099.69 486.731C1100.11 486.742 1100.54 486.731 1101 486.961C1096.59 487.754 1092.19 488.547 1087.78 489.341C1074.49 491.72 1061.2 494.089 1047.91 496.457C1038.57 498.125 1029.22 499.792 1019.86 501.39C1018.46 501.631 1017.75 501.884 1017.85 503.632C1018.67 516.406 1014.86 528.225 1010.19 539.86C1002.71 558.463 991.948 574.951 978.031 589.38C977.364 590.07 976.984 590.84 976.651 591.714C974.511 597.44 972.326 603.142 970.117 608.845C969.703 609.914 969.531 610.616 971.233 610.179C969.565 610.524 969.025 611.639 968.518 612.961C958.742 638.831 948.93 664.677 939.131 690.535C939.039 690.788 938.924 691.029 938.809 691.282C938.694 691.397 938.578 691.408 938.463 691.293C939.177 686.085 939.878 680.865 940.614 675.657C942.075 665.24 943.559 654.824 945.043 644.407C945.641 640.222 946.181 636.025 946.848 631.852C947.021 630.794 946.826 630.552 945.779 630.598C939.959 630.828 934.139 631.012 928.33 631.208C924.58 631.334 920.831 631.484 917.081 631.576C916.356 631.599 915.689 631.702 915.034 631.99C895.86 640.486 875.88 646.43 855.407 650.799C842.329 653.593 829.113 655.605 815.828 657.134C811.445 657.64 807.408 659.56 803.21 660.837C797.574 662.55 791.972 664.401 786.221 665.953C789.499 663.711 792.789 661.469 796.067 659.216L795.987 658.94C792.985 659.101 789.983 659.25 786.969 659.411C767.933 660.446 748.897 660.342 729.861 659.423C716.818 658.79 703.809 657.755 690.834 656.318C674.409 654.502 658.065 652.076 641.824 649.017C634.347 647.615 626.894 646.108 619.475 644.43C618.946 644.315 618.497 644.407 617.957 644.556C617.324 644.729 616.266 645.223 615.921 643.878C615.817 643.476 615.196 643.464 614.782 643.361C609.514 642.061 604.258 640.716 598.967 639.52C597.414 639.176 595.804 639.9 594.147 639.509C592.273 639.072 590.444 638.589 588.902 637.462C587.637 636.543 586.245 636.06 584.785 635.646C570.741 631.656 556.857 627.138 543.17 622.044C542.917 621.952 542.675 621.86 542.054 621.642L547.115 630.368L546.839 630.552C544.355 628.644 541.824 626.804 539.409 624.815C538.477 624.045 537.867 624.068 536.878 624.677C527.815 630.334 518.716 635.933 509.63 641.555C509.377 641.716 509.112 641.854 508.457 642.211C509.86 639.072 511.079 636.336 512.298 633.588C515.139 627.207 517.969 620.826 520.856 614.467C521.293 613.513 521.235 613.065 520.2 612.685C517.785 611.788 515.553 610.524 512.873 610.202C509.112 609.765 506.099 607.35 503.016 605.396C499.117 602.924 494.976 600.969 490.916 598.808C487.189 596.83 483.98 593.967 480.253 591.944C478.724 591.116 477.297 590.116 475.848 589.162C475.1 588.667 474.744 588.368 474.433 589.679C472.696 596.773 470.799 603.832 468.97 610.915C468.866 611.329 468.82 611.754 468.395 612.133C467.371 604.396 466.37 596.738 465.358 589.081C465.025 586.506 464.668 583.919 464.369 581.332C464.288 580.642 463.92 580.297 463.391 579.952C462.068 579.101 460.78 578.216 459.48 577.342C459.055 576.744 458.951 576.066 458.951 575.342C458.951 571.455 458.951 567.569 458.951 563.695C458.951 562.993 458.986 562.292 459.457 561.694L459.446 561.729Z" fill="#0A1433"/>
<path d="M459.446 561.729L459.469 577.377C452.717 573.054 445.954 568.742 439.202 564.396C429.943 558.44 420.684 552.473 411.436 546.517C411.034 546.253 410.631 545.977 410.309 545.506C426.688 550.909 443.067 556.325 459.446 561.729Z" fill="#0A1433"/>
<path d="M568.498 517.222C587.384 517.555 606.225 518.567 625.053 519.958C639.098 520.993 653.119 522.281 667.117 523.695C674.904 524.488 682.656 525.489 690.478 526.029C702.106 526.822 713.735 527.11 725.387 527.052C744.054 526.96 762.688 526.098 781.321 524.971C801.68 523.729 822.039 522.511 842.398 521.476C861.583 520.499 880.78 520.039 899.989 520.763C918.703 521.464 937.313 523.189 955.636 527.225C960.191 528.225 964.688 529.455 969.209 530.639C970.796 531.053 970.75 531.525 970.094 532.835C958.408 556.095 941.189 574.295 919.393 588.334C907.856 595.761 895.56 601.659 882.747 606.534C866.897 612.57 850.564 616.801 833.909 619.825C819.14 622.516 804.234 624.217 789.246 625.172C770.486 626.379 751.726 626.471 732.955 625.712C718.175 625.114 703.429 623.907 688.718 622.274C665.414 619.687 642.318 615.939 619.394 611.064C600.796 607.121 582.404 602.395 564.253 596.727C563.943 596.635 563.644 596.508 563.356 596.359C545.125 587.276 527.055 577.882 510.124 566.488C502.947 561.648 496.011 556.497 490.134 550.07C487.626 547.322 485.429 544.379 484.175 540.815C482.634 536.411 483.508 532.582 486.947 529.398C490.812 525.81 495.632 524.109 500.554 522.683C508.732 520.315 517.141 519.211 525.595 518.475C539.869 517.233 554.166 516.992 568.486 517.233L568.498 517.222Z" fill="url(#paint1_linear_6_77)"/>
</g>
<path d="M233.17 1135.71C234.275 1135.71 235.162 1136.61 235.244 1137.71C236.253 1151.24 247.414 1161.78 260.82 1161.78C276.13 1161.78 285.65 1153.09 285.65 1140.26C285.65 1121.64 261.24 1116.26 240.96 1109.23C199.17 1094.33 176 1074.89 176 1032.27C176 989.65 213.65 952 260.41 952C314.578 952 340.687 986.077 344.648 1030.95C344.75 1032.11 343.832 1033.1 342.671 1033.1H289.72C288.615 1033.1 287.727 1032.2 287.66 1031.1C286.87 1017.95 278.219 1007.45 262.07 1007.45C248.83 1007.45 236 1015.31 236 1031.45C236 1050.07 258.76 1053.38 279.86 1059.59C324.13 1072.83 344.82 1097.66 344.82 1136.55C344.82 1180.41 307.58 1216.82 260.83 1216.82C207.434 1216.8 176.924 1181.47 176.021 1137.72C175.998 1136.61 176.895 1135.71 178 1135.71H233.17Z" fill="#F1F5FF"/>
<path d="M385.77 962.28C385.77 961.175 386.665 960.28 387.77 960.28H444.59C445.695 960.28 446.59 961.175 446.59 962.28V1206.53C446.59 1207.63 445.695 1208.53 444.59 1208.53H387.77C386.665 1208.53 385.77 1207.63 385.77 1206.53V962.28Z" fill="#F1F5FF"/>
<path d="M619.54 952C664.617 952 696.141 968.335 721.931 993.974C722.733 994.77 722.701 996.075 721.87 996.841L682.531 1033.09C681.772 1033.79 680.604 1033.8 679.826 1033.12C663.103 1018.52 642.492 1009.5 619.54 1009.5C575.27 1009.5 546.72 1042.6 546.72 1084.39C546.72 1130.32 579.41 1159.28 620.78 1159.28C662.943 1159.28 684.06 1136.68 686.782 1113.41C686.917 1112.26 685.996 1111.28 684.838 1111.28H618.23C617.126 1111.28 616.23 1110.38 616.23 1109.28V1060.73C616.23 1059.63 617.126 1058.73 618.23 1058.73H750.77C751.875 1058.73 752.77 1059.63 752.77 1060.73V1082.31C752.77 1155.55 709.74 1216.78 619.54 1216.78C540.93 1216.78 485.07 1158.44 485.07 1084.38C485.07 1010.32 540.93 952 619.54 952Z" fill="#F1F5FF"/>
<path d="M792.49 962.28C792.49 961.175 793.385 960.28 794.49 960.28H847.903C848.676 960.28 849.381 960.726 849.711 961.426L910.667 1090.52C911.388 1092.05 913.558 1092.05 914.282 1090.53L975.647 961.421C975.979 960.724 976.682 960.28 977.454 960.28H1030.05C1031.15 960.28 1032.05 961.175 1032.05 962.28V1206.53C1032.05 1207.63 1031.15 1208.53 1030.05 1208.53H973.64C972.535 1208.53 971.64 1207.63 971.64 1206.53V1107.26C971.64 1105.11 968.713 1104.47 967.821 1106.43L917.974 1215.64C917.649 1216.35 916.938 1216.81 916.154 1216.81H908.799C908.014 1216.81 907.302 1216.35 906.978 1215.64L857.132 1105.66C856.243 1103.7 853.31 1104.34 853.31 1106.49V1206.53C853.31 1207.63 852.415 1208.53 851.31 1208.53H794.49C793.385 1208.53 792.49 1207.63 792.49 1206.53V962.28Z" fill="#F1F5FF"/>
<path d="M1178.8 953.148C1179.13 952.447 1179.83 952 1180.61 952H1188.83C1189.61 952 1190.31 952.445 1190.64 953.143L1310.39 1205.67C1311.01 1207 1310.05 1208.53 1308.58 1208.53H1247.62C1246.86 1208.53 1246.16 1208.09 1245.82 1207.4L1234.51 1184.01C1234.17 1183.32 1233.47 1182.88 1232.71 1182.88H1137.17C1136.4 1182.88 1135.69 1183.33 1135.36 1184.03L1124.44 1207.38C1124.11 1208.08 1123.4 1208.53 1122.63 1208.53H1061.68C1060.22 1208.53 1059.25 1207 1059.87 1205.68L1178.8 953.148ZM1210.17 1139.43C1211.62 1139.43 1212.59 1137.93 1211.99 1136.6L1184.89 1076.92C1184.79 1076.69 1184.56 1076.54 1184.3 1076.54C1184.05 1076.54 1183.82 1076.69 1183.72 1076.92L1156.24 1136.59C1155.63 1137.92 1156.59 1139.43 1158.05 1139.43H1210.17Z" fill="#F1F5FF"/>
<defs>
<linearGradient id="paint0_linear_6_77" x1="1483" y1="3.36352e-05" x2="807.837" y2="1758.21" gradientUnits="userSpaceOnUse">
<stop offset="0.0714245" stop-color="#821E4E"/>
<stop offset="1" stop-color="#00C2DD"/>
</linearGradient>
<linearGradient id="paint1_linear_6_77" x1="823.268" y1="626.805" x2="579.265" y2="517.721" gradientUnits="userSpaceOnUse">
<stop stop-color="#00899B"/>
<stop offset="1" stop-color="#D9D9D9" stop-opacity="0"/>
</linearGradient>
<clipPath id="clip0_6_77">
<rect width="1135.74" height="367.32" fill="white" transform="translate(176 952)"/>
</clipPath>
</defs>
</svg>
