<?xml version="1.0" encoding="UTF-8"?><svg id="Layer_1" xmlns="http://www.w3.org/2000/svg" viewBox="0 0 2511.81 1367.71"><defs><style>.cls-1{fill:#fff;}.cls-2{fill:#fdfdfd;}.cls-3{fill:#98a0aa;}.cls-4{fill:#848d99;}.cls-5{fill:#dadee2;}.cls-6{fill:#11243b;}.cls-7{fill:#081b33;}.cls-8{fill:#192b41;}.cls-9{fill:#0a1433;}.cls-10{fill:#727c8a;}</style></defs><g><path class="cls-9" d="M1086.22,655.75c0,14.48,11.59,26.07,25.65,26.07,15.31,0,24.83-8.69,24.83-21.52,0-18.62-24.41-24-44.69-31.03-41.79-14.9-64.96-34.34-64.96-76.96s37.65-80.27,84.41-80.27c55.03,0,81.1,35.17,84.41,81.1h-57.1c0-14.07-8.69-25.65-25.65-25.65-13.24,0-26.07,7.86-26.07,24,0,18.62,22.76,21.93,43.86,28.14,44.27,13.24,64.96,38.07,64.96,76.96,0,43.86-37.24,80.27-83.99,80.27-54.2,0-84.82-36.41-84.82-81.1h59.17Z"/><path class="cls-9" d="M1236.82,480.32h60.82v248.25h-60.82v-248.25Z"/><path class="cls-9" d="M1470.59,472.04c45.93,0,77.79,16.96,103.85,43.44l-42.2,38.89c-16.96-15.31-38.07-24.83-61.65-24.83-44.27,0-72.82,33.1-72.82,74.89,0,45.93,32.69,74.89,74.06,74.89,43.45,0,64.55-24,66.2-48h-70.75v-52.55h136.54v23.58c0,73.24-43.03,134.47-133.23,134.47-78.61,0-134.47-58.34-134.47-132.4s55.86-132.4,134.47-132.4Z"/><path class="cls-9" d="M1643.54,480.32h56.68l63.3,134.06,63.72-134.06h55.86v248.25h-60.41v-110.47l-54.2,118.75h-9.93l-54.2-119.58v111.3h-60.82v-248.25Z"/><path class="cls-9" d="M2030.39,472.04h10.76l121.64,256.53h-65.37l-12.41-25.65h-98.06l-12,25.65h-65.37l120.82-256.53Zm33.93,187.43l-28.55-62.89h-.83l-28.96,62.89h58.34Z"/></g><g><path class="cls-9" d="M1038.88,789.41h16.84c14.26,0,25.3,10.47,25.3,24.09,0,12.89-9.83,24.25-25.3,24.25h-16.84v-48.34Zm16.6,37.54c7.57,0,13.37-5.32,13.37-13.45,0-7.49-5.08-13.38-13.37-13.38h-4.75v26.83h4.75Z"/><path class="cls-9" d="M1089.07,789.41h31.99v10.47h-20.14v8.7h18.61v10.31h-18.61v8.7h21.03v10.15h-32.87v-48.34Z"/><path class="cls-9" d="M1154.33,787.8c9.18,0,15.55,3.46,20.71,8.86l-8.14,7.73c-3.38-3.3-7.73-5.4-12.57-5.4-8.62,0-14.18,6.45-14.18,14.58s5.56,14.58,14.18,14.58c4.83,0,9.18-2.09,12.57-5.4l7.89,7.73c-4.83,5.08-11.52,8.86-20.46,8.86-15.31,0-26.18-11.36-26.18-25.78s10.88-25.78,26.18-25.78Z"/><path class="cls-9" d="M1180.76,789.41h31.99v10.47h-20.14v8.7h18.61v10.31h-18.61v8.7h21.03v10.15h-32.87v-48.34Z"/><path class="cls-9" d="M1219.35,789.41h12.49l18.77,28.68v-28.68h11.76v48.34h-12.33l-18.85-28.76v28.76h-11.84v-48.34Z"/><path class="cls-9" d="M1278.65,799.88h-10.8v-10.47h33.68v10.47h-10.96v37.87h-11.92v-37.87Z"/><path class="cls-9" d="M1307.01,789.41h20.22c10.39,0,17.16,6.28,17.16,15.39,0,8.46-4.27,13.21-11.44,14.98l13.05,17.97h-14.82l-12.33-18.05v18.05h-11.84v-48.34Zm21.35,20.95c2.66,0,4.43-2.74,4.43-5.56s-2.09-5.32-4.75-5.32h-9.18v10.88h9.51Z"/><path class="cls-9" d="M1371.14,787.8h2.09l23.69,49.95h-12.73l-2.42-5h-19.09l-2.34,5h-12.73l23.53-49.95Zm6.61,36.5l-5.56-12.25h-.16l-5.64,12.25h11.36Z"/><path class="cls-9" d="M1402.08,789.41h11.84v38.19h21.03v10.15h-32.87v-48.34Z"/><path class="cls-9" d="M1440.67,789.41h11.84v48.34h-11.84v-48.34Z"/><path class="cls-9" d="M1458.07,836.62l22.07-36.33h-19.34v-10.88h37.95v1.13l-22.88,36.25h22.08v10.96h-39.88v-1.13Z"/><path class="cls-9" d="M1506.01,789.41h31.98v10.47h-20.14v8.7h18.61v10.31h-18.61v8.7h21.03v10.15h-32.87v-48.34Z"/><path class="cls-9" d="M1544.6,789.41h16.84c14.26,0,25.3,10.47,25.3,24.09,0,12.89-9.83,24.25-25.3,24.25h-16.84v-48.34Zm16.6,37.54c7.57,0,13.37-5.32,13.37-13.45,0-7.49-5.08-13.38-13.37-13.38h-4.75v26.83h4.75Z"/><path class="cls-9" d="M1613.86,792.34h15.82c13.4,0,23.77,9.84,23.77,22.63,0,12.11-9.23,22.78-23.77,22.78h-15.82v-45.41Zm15.59,35.27c7.11,0,12.56-5,12.56-12.64,0-7.04-4.77-12.56-12.56-12.56h-4.46v25.2h4.46Z"/><path class="cls-9" d="M1661.01,792.34h11.13v45.41h-11.13v-45.41Z"/><path class="cls-9" d="M1703.77,790.82c8.4,0,14.23,3.1,19,7.95l-7.72,7.11c-3.1-2.8-6.96-4.54-11.28-4.54-8.1,0-13.32,6.05-13.32,13.7,0,8.4,5.98,13.7,13.55,13.7,7.95,0,11.81-4.39,12.11-8.78h-12.94v-9.61h24.98v4.31c0,13.4-7.87,24.6-24.37,24.6-14.38,0-24.6-10.67-24.6-24.22s10.22-24.22,24.6-24.22Z"/><path class="cls-9" d="M1735.4,792.34h11.13v45.41h-11.13v-45.41Z"/><path class="cls-9" d="M1761.82,802.18h-10.14v-9.84h31.64v9.84h-10.29v35.57h-11.2v-35.57Z"/><path class="cls-9" d="M1801.32,790.82h1.97l22.25,46.92h-11.96l-2.27-4.69h-17.94l-2.2,4.69h-11.96l22.1-46.92Zm6.21,34.29l-5.22-11.5h-.15l-5.3,11.5h10.67Z"/><path class="cls-9" d="M1830.39,792.34h11.13v35.87h19.75v9.54h-30.88v-45.41Z"/><path class="cls-9" d="M1884.42,792.34h11.12v45.41h-11.12v-45.41Z"/><path class="cls-9" d="M1902.81,792.34h15.82c13.4,0,23.76,9.84,23.76,22.63,0,12.11-9.23,22.78-23.76,22.78h-15.82v-45.41Zm15.59,35.27c7.11,0,12.56-5,12.56-12.64,0-7.04-4.77-12.56-12.56-12.56h-4.47v25.2h4.47Z"/><path class="cls-9" d="M1949.96,792.34h30.05v9.84h-18.92v8.17h17.48v9.69h-17.48v8.17h19.75v9.54h-30.88v-45.41Z"/><path class="cls-9" d="M1986.22,792.34h11.73l17.63,26.94v-26.94h11.05v45.41h-11.58l-17.71-27.02v27.02h-11.12v-45.41Z"/><path class="cls-9" d="M2041.92,802.18h-10.14v-9.84h31.64v9.84h-10.29v35.57h-11.2v-35.57Z"/><path class="cls-9" d="M2068.56,792.34h11.13v45.41h-11.13v-45.41Z"/><path class="cls-9" d="M2094.97,802.18h-10.14v-9.84h31.64v9.84h-10.29v35.57h-11.2v-35.57Z"/><path class="cls-9" d="M2135.39,815.8l-16.12-23.46h12.56l9.08,13.62,9.16-13.62h12.49l-16.12,23.46v21.95h-11.05v-21.95Z"/></g><g><path class="cls-9" d="M920.06,313.89c-23.01-54.87-70.69-118-138.99-101.15-40.26-18.44-75.13-56.97-125.46-54.78-33.09-6.45-52.78,19.14-80.09,28.89-33.79,4.71-69.18-18.23-100.27,.3-74.79,42.58-121.23,138.11-109.75,223.57,.48,45.2,34.64,84.05,40.09,126.66-22.03,60.65,18.61,120.7,12.85,180.04-10.4,41.54-29.56,91.31-16.32,130.27,6.82,18-2.63,32.62,13.26,48.61,5.23,11.51-3.18,24.65,5.44,36.33,9.13,14.47,9.62,32.34,24.99,42.37,7.34,8.29,2.06,31.51,15.2,28.55,7.46,.16,4.79,16.95,14.42,10.84,14.04,4.79,23.86,28.32,39.44,37.38,4.64,4.45,9.16,1.44,14.04-.94,13.24-8.23,18.96,21.37,33.3,4.49,5.19-5.44,9.46,1.91,13.2,5.2,18.43,13.74,38.33-9.88,52.19,15.1,7.31,8.29,15.16-6.59,23.02-4.11,10.73,5.39,17.76-8.48,28.68-5.02,8-2.61,16.2-19.31,25.72-6.58,13.43,16.95,24.95-22.38,41.99-8.93,10.69,6.47,16.16-4.58,21.1-12.47,13.05-7.93,21.64-18.16,28.24-30.23,20.1-3.14,17.15-2.73,28.5-22.95,.73-13.41,4.7,.23,10.38-1.19,8.22-7.99,3.99-24.48,7.34-35.41,12.33-12.23,15.61-29.47,18.07-46.8,.08-19.56,33.08-61.03,23-79.34-1.58-51.58-40.77-103.12-15.17-153,15.46-43.81,16.03-88.45,12.97-133.89,34.49-64.93,85.08-151.08,38.61-221.82Zm-56.56,550.45c-.55-2.55,3.27-1.17,2.15,.62-2.78,5.52-6.27,5.54-2.15-.62Zm-93.6-519.17c15.16-19.9,24.09-47.22,50.04-55.76-23.86,10.72-33.25,44.81-50.04,55.76Zm16.01-39.21c.06-.82,.63-.94,1.27-.95,.07,.62-.73,1.9-1.27,.95Zm-115.47-133.22c18.03,1.39,82.32,20.95,67.18,39.92-22.55-12.27-46.83-27.07-67.18-39.92Zm56.43,65.65c-11.56-18.91-27.05-34.25-42.5-49.4,20.93,11.69,38.69,32.89,42.5,49.4Zm-42.66-49.52c-.91,.02-1.82,.02-2.43-.89,1.06-.3,1.78,.21,2.43,.89Zm-61.87-11.28c52.05-4.38,100.9,53.77,105.71,102.2-30.85-136.94-171.17-72.19-105.71-102.2Zm93.8,92.65c-7.62-10.48-7.87-28.91-17.58-40.39,6.49,2.62,16.83,28.04,17.58,40.39Zm-17.94-42.33c-1.58-.68-2.21-2.04-3.13-4.24,2.4,1.2,2.91,2.63,3.13,4.24Zm-138.51-28.86c63.65-17.88,151.52-.46,146.18,81.38-8.65-139.66-164.53-54.43-146.18-81.38Zm136.51,127.98c-10.9,20.05,20.3-81.53-49.04-113.92,40.97,12.79,69.47,76.56,50.82,120.02-3.04-2.24-.98-4.18-1.78-6.11Zm-199.13-130.74c28.23-4.31,60.46,38.39,106.52,15.63,65.1-14.93,101.26,75.4,77.39,126.63-9.17,25.24-15.06,26.03-4.03-.46,11.57-28.95,11.84-68.55-8.36-91.52,3.49,18.83,3.28,42.75-3.14,59.61-8.06-10.25-3.84,12.61-10.57,18.49,34.25-185.22-73.83-54.85-157.8-128.37Zm128.99,186.03c-9.04-2.87-10.46-18.84-9.69-27.74,4.41,8.3,9.54,19,9.69,27.74Zm-198.14,295.24c-14.44-18.31-24.37-176.22-4.49-111.37-.93,37.12,6.75,74.4,4.49,111.37Zm-26.02-330.81c-24.06-8.58-27.29,41.12-18.47,57.16,4.97-12.02,22.42-20.39,34.57-21.31,14.49,2.12-33.11,31.24-4.65,24.68,1.33-3.39,11.04-6.82,6.74-.6-10.19,13.09-40.54,72.96-2.92,55.32,5.27-3.2,2.58,6.58,8.83,4.73-11.64,10.18-17.27,22.37-17.11,37.35-29.3-49.99-42.85-117.68-26.02-174.87,20.81-45.11,47.24-133.66,109.56-122.56-46.6,7.54,26.29,3.12,39.3,70-14.9-20.88-33.83-63.39-65.81-55.61-13.86-7.25-49.96,29.43-35.31,26.26,51.93-51.18,82.18,55.49,72.99,49.44-10.88-54.89-71.59-82.73-82.14-13.69-.22,11.27,19.59,10.75,18.62,21.01-25.62-11.65-8.82-1.93-.36,10.81-12.6-.29-22.85-31.13-30.5-17.96-13.81,14.18,28.19,51.09-1.79,40.13-2.87-2.69-5.06,1.24-1.98,3.4,11.86,10.72,25.34,18.18,41.91,19.04-15.22,7.36-32.57-4.84-45.46-12.73Zm129.83-70.06c-.14,.52,.19,1.87-.53,1.41-.4-.69,.02-1.07,.53-1.41Zm-7.81,4.77c-.43-.26-.21-.13,0,0-.45,.65-.55,.15,0,0Zm-.81-.72c-9.24-17.3-16.19-36.19-32.54-48.42,17.66,9.88,27.37,29.52,32.54,48.42Zm-37.08-4.41c-5.75-11.46-12.57-22.21-20.93-31.95,11.73,7.52,15.91,20.01,20.93,31.95Zm-31.77,85.02c-.55,1.32-3.74,1.7-3.44-.09,.13-1.42,3.81-1.58,3.44,.09Zm.99,454.53c-6.13-2.13-3.67-10.68,1.51-4.94,6.11,.3,8.76-4.61,12.14-8.27,3.11-10.01-8.65-1.57-12.87-1.18,2.38-7.85,14.37-12.48,20.88-8.14,2.04,6.51-7.75,17.3-13.71,21.83,17.17,2.51,32.42-1.68,46.22-12.35,26.47-20.97,36.1-55.55,62.18-77.19-13.1,28.64-62.47,117.85-116.35,90.24Zm61.87,90.95c-10.22,5.3-10.42-6.33-13.72-11.55-2.41-.86-4.04,.94-5.51,2.56-3.24,6.09-14.86-2.74-7.46-6.54,17.74-25.7,22.44-60.28,52.37-75.95,25.7-8.91,31.8-50.24,62.27-20.45,6.1,7.47-24.77,21.48-34.27,20.63-7.13,3.31-7.12-9.77-12.49-5.23-13.12,16.71,16.49,15.09,22.32,23.2-21.71,18.84-35.49,55.81-63.5,73.33Zm150.84-129.91c59.73,8.65-58.55,29.23-70.95,5.98-10.87-14.02,59.11,.49,70.95-5.98Zm-52.3-6.25c15.1-7.24,30.13-6.04,45.91-.35-14.72,3.64-30.23,5.26-45.91,.35Zm-67.06,171.54c-7.31,8.2-6.66-9.04-13.93-3.4-16.54,5.75,12.89-15.1,9.53-21.04-4.27,2.26-17.89,23.61-9.85,2.57,11.61-14.07,8.79-38.02,22.69-49.06,6.33,12.99-9.45,27-7.12,41.6,41.82-39.79,14.76,11.09-1.32,29.32Zm75.25,69.52c-2.56-11.66-5.03-23.31,2.36-34.34,.02,11.52-1.64,22.89-2.36,34.34Zm92.2-38.23c-8.78-2.08-12.03-15.51-16.06-22.26-15.68-.36-9.89-44.29-21.08-58.26-3.71-6.22-4.79-.81-4.33,3.44-19.54-14.14-10.03-9.84-17.35,4.59-18.67-13.12-12.45-21.95-16.26-43.47-9.32,10.76-1.68,27.84-2.7,40.95-2.53,23.76-8.36-23.57-4.72-30.46-8.44,13.65-18.4,48.61-23.74,13.12-5.65,15.47-17.32,21.48-8.86,.32-8.68,9.92-9.48,20.21-13.74,31.36-4.55,14.55-1.44,43.15-18.52,48.38-16.64,15.08-1.43-25.89,4.59-32.98,13.88-31.79,21.33-77.82,49.6-96.35-3.21,18.72,29.46,10.43,39.86,12.99,17.19-4.32,21.65,35.14,27.16,45.16,6.15,28.07,28.61,54.56,26.15,83.48Zm4.08-14.18c-2.62-10.11-6.9-19.69-8.81-30.03,4.27,9.59,10.7,18.49,8.81,30.03Zm23.33-21.31c-5.95,2.29-4.77-6.02-7.88,3.18-14.14-5.81-24.01-21.88-29.01-36.41-17.89-32.77,36.01,25.69,36.89,33.23Zm-21.09-68.46c8.45,8.06,12.54,16.83,12.87,27.35-4.88-8.4-10.26-16.57-12.87-27.35Zm61.25,22.58c-6.77-1.83-33.46-29.59-19.95-7.98,3.97,3.2,4.11,11.3-2.62,8.15,2.28,3.35,6.81,12.8-.87,8.27-29.64-18.31-35.66-58.67-68.37-69.6,7.1-6.33,22.64,3.32,29.5-7.24,2-2.19-4.77-10.84-9.06-8.78-37.15,1.64-60.14-23.29-10.08-29.88,10.71,1.41,8.06,32.13,24.07,30.24,29.47,1.4,46.75,53.07,57.38,76.83Zm40.81-97.27c-42.29,65.11-96.78-37.38-122.15-70.59,33.83,20.59,43.3,69.69,82.35,83.71,11.78,10.8,47.44-13.5,27.95-9.61,1.93-5.54,15.85-14.88,11.85-3.51Zm22.07-210.24c8.09,28.83-46.62,234.9-81.88,172.24-10.28-32.73-102.63-40.31-65.68-53.94-26.98-3.21-45.07,29.29-71.26,16.58-12.8-13.24-51.54-11.03-46.31-33.44,2.51-10.24,10.29-18.43,19.95-17.45-21.37-11.56-35.51,41.62-2.5,41.83-24.88,8.2-49.57,13.34-70.31,30.07-70.15,99.42-121.46-194.12-77.17-233.43,22.84-20.45,22.99-43.72,15.12-71.7-6.41-33.97,5.21-95.39,50.23-90.03,41.64,22.03,95.04,27.61,132.52,52.83,22.57-8.32,47.48-25.63,71.96-35.09,35.73-9.49-9.67,25.69,69.07-2.67,45.73,6.69,34.03,78.5,23.56,111.81,2.12,38.92,50.32,67.46,32.7,112.38Zm16.24,62.14c-24.33,86.19-2-66.44,1.89-92.76,18.19,14.54,2.45,67.1-1.89,92.76Zm45.85-182.72c-18.49,16.05-29.19,64.56-46.31,67.73,25.23-26.82,23.41-60.18,6.79-91.21,19.38,29.13,16.96,11.39,2.02-9.48-10.08-13.2-18.47-31.07-23.79-45.48,2.6,4.81,9.25,1.47,10.63,6.62,.55,1.49-.51,4.68,2.19,3.93,9.7-17.08,12.97,20.98,28.15,10.77,8.45,4.76,7.62,18.15,11.15,26.51,2.8,10.19,18.3,17.52,9.16,30.6Zm15.68-92.05c-2.29,16.65-7.35,31.92-5.85,49.03-1.25-38.85-29.94-84.46-70.5-89.09,23.81-4.59,43.65,14.6,55.69,33.62-2.84-15.81-16.12-23.05-28.29-30.69,23.3,9.28,38.11,21.8,15.1-7.59-13.86-10.97-16.87-17.47-16.36-21.38,19.48,.84,29.42,19.92,43.78,29.63-20.56-64.84-92.19-48.62-125.7-2.42,16.03-33.98,63.2-56.73,95.54-50.43-8.81-22.89-46.8-9.59-64.46-2.87-10.45,.42-39.94,34.28-33.9,18.84,9.7-35.67,120.81-31.25,57.06-45.33-25.12-1.18-48.48,10.34-67.93,24.23,8.14-21.12,35.88-23.32,55.27-27.5,2.71-5.5-38.96,5.88-49.88,10.5,9.17-8.53,21.39-9.63,32.45-13.61-13.84-2.39-25.7,3.91-39.28,8.51,22.68-15.24,47.8-14.7,72.59-5.83-8.94-11.82-21.18-17.85-34.23-24.29,18.53,.36,37.27,11.47,50.7,24.23,17.4,14.3,25.71,33.64,32.24,53.74,17.74,19.12,30.61,42.01,25.96,68.71Z"/><path class="cls-1" d="M771.63,766.94c-17.93-47.46-109.51-49.07-72.68-64.03-26.98-3.21-45.07,29.29-71.26,16.58-12.8-13.23-51.54-11.03-46.31-33.44,2.51-10.25,10.29-18.42,19.95-17.45-21.37-11.57-35.51,41.62-2.5,41.83-100.56,14.83-79.52,105.8-136.62,11.07-22.45-64.48-45.64-151.76-10.87-214.43,22.85-20.45,23.01-43.71,15.13-71.69-10.5-42.62,18.52-116.2,70.99-81.63,42.68,15.5,88.83,35.07,117.22,43.24,21.88-8.37,78.66-54.79,81.33-24.36,22.37,4.33,51.7-23.76,69.48-7.2,39.97,37.83-1.85,88.53,13.03,128.73,60.15,66,21.18,223.68-46.88,272.78Zm-98.6-179.98c1.97-9.72,7.12-13.96,15.56-12.17-13.63,16.21,28.46,7.61,38.94,12.47,21.81,7.12,34.97-15.99,54.51-3.01,30.08-14.33-47.17-31.32-54.61-35.67,26.27-8.99,55.75-3.7,83.06,.79-46.63-67-198.59-6.76-103.11-.72,11.8-.15-13.88,8.36-16.28,3.71-12.53-.52-23.77,22.59-18.08,34.6Zm-101.66-39.02c-46.88-12.39-113.63,51.46-53.82,25.94,8.6-.89,14.96,14.56,28.12,11.27,9.03-2.92,69.01,4.78,52.87-9.18-3.4-7.77,8.72,1.45,11.41,2.7,18.69,5.52-14.59-41.88-38.57-30.73Zm4.49-2.96c109.16-4.34-59.87-63.25-100.45-1.92-4.88,7.19,11.23,1.59,14.42,.8,28.12-8.87,56,3.28,86.03,1.13Z"/><path class="cls-1" d="M531.81,276.64c-14.89-20.61-26.87-51.1-56.94-57.16-17.81-.34-44.41,8.21-47.75,29.65,42.79-40.16,74.35,11.45,80.63,53.48-41.24-123.22-119.68-23.96-68.43-2.41,4.73,10.72-11.27-2.71-15.02-4.3,20.62,23.74,10.07,19.97-6.57,.47-17.76-13.18-9.01,32.01,1.21,38.46,6.3,7.13-8.23,4.31-11.5,2.22-11.44,4.8,29.61,24.38,39.93,22.43-27.69,13.66-53.11-39.23-67.64,4.54-2.58,76.73,8.89,8.12,41.67,21.01-2.42,5.6-29.8,28.44-8.03,22.27,25.79-19.55-45.05,69.05,.03,57.95,7.23-9.19,5.7,1.71,12.62,1.5-14.68,4.76-15.09,44.15-21.52,32.31-38.14-76.95-41.21-170.44,13.52-240.45,13.63-27.23,39.29-63.81,74.43-51.94-6.22,2.13-13.4,.87-18.73,5.68,32.72,6.4,48.15,34.88,58.1,64.29Z"/><path class="cls-1" d="M609.82,881.15c-5.65,15.47-17.32,21.48-8.86,.32-21.75,21.74-7.17,65.44-32.25,79.73-28.49,28.98,41.69-136.09,54.18-129.33-4.28,23.06,41.28,5.18,48.12,15.37,14.88,15.05,14.1,34.81,22.73,52.99,4.16,24.79,26.48,47.57,22.32,73.28-8.78-2.08-12.03-15.51-16.06-22.26-5.75,7.09-6.33-11.29-10.66-16.15-2.39-4.96-8.5-59.13-14.39-40.38-3.41,5.32-7.97-10.47-15.34-5.92-.33,2.78,1.9,10.91-2.37,12.21-18.67-13.12-12.45-21.95-16.26-43.47-11.59,12.41,2.41,35.53-3.94,48.36-7.15-7.36-3.75-23.66-3.85-33.81-3.1-12.75-16.96,56.93-23.37,9.06Zm65.01-6.38c-1.29-6.37-6.95-12.14-12.43-13.03,2.32,6.03,6.37,10.06,12.43,13.03Z"/><path class="cls-1" d="M877.13,310c-.06-15,31.76,19.09,40.71,25.5-16.53-50.61-68.96-56.05-106.17-21.82-46.53,43.06,17.1-35.58,54.18-29.53,1.89-.18,4.22,.7,4.31-2.92,2.26-8.24,20.79,7.86,16.91-1.78-29.42-37.27-111.52,38.43-97.75,19.17,9.69-35.67,120.81-31.25,57.05-45.33-24.77-.91-47.55,9.47-67.06,23.79,6.48-23.1,40.04-21.24,58.17-28.92-31.84,3.74-76.94,17.4-21.2-1.27-13.83-2.39-25.7,3.91-39.27,8.51,17.19-10.94,34.73-14.54,54.32-10.81,35.48,11.92-.26-12.8-15.96-19.31,32.95,1.98,61.8,29.45,76.54,58.11,36.01,74.73,37.6,47.93,26.5,137.61-1.24-38.85-29.92-84.46-70.49-89.09,23.81-4.59,43.65,14.59,55.69,33.62-2.84-15.81-16.12-23.05-28.29-30.69,11.21,2.21,19.6,9.69,29.23,15.33-1.37-17.24-51.3-51.8-20.42-35.89,.24-1.7-4.48-4.69-7-4.28Z"/><path class="cls-1" d="M598.82,804.14c-7.24,6.87-29.37,18.38-36.03,6.84-6.43-6.86-11.83,12.02-1.51,13.95,5.17,3.94,27.53,4.42,17.32,14.14-27.75,14.21-31.68,53.73-61.48,67.75-10.22,5.31-10.42-6.32-13.71-11.55-2.41-.86-4.04,.94-5.51,2.56-3.24,6.09-14.86-2.74-7.46-6.54,10-8.75,10.33-22.05,16.03-32.69,10.99-34.13,48.84-41.89,66.19-71.48-4.65,21.56,9.77,21.54,26.16,17.02Z"/><path class="cls-1" d="M710.77,804.78c15.67,10.15,4.35,10.91,23.91,10.17,14.6,8.84,54.56,69,45.92,76.37-15.8-12.39-27-28.13-14.63,.8-9.58,.71,.35,3.45-1.66,9.25-19.83-7.42-34.62-30.45-43.07-49.84-1.36-10.13-44.52-21.48-22.59-22.49,8.21-.13,16.95,1.76,22.67-5.32,3.41-13.68-46.94-5.62-50.86-26.2,7.83-.76,26.74,21.23,40.32,7.25Z"/><path class="cls-1" d="M885.15,408.97c9.59-8.18,11.36,18.33,14.28,24.46,2.8,10.2,18.3,17.52,9.16,30.6-18.49,16.05-29.18,64.56-46.31,67.73,25.23-26.82,23.41-60.18,6.79-91.21,35.43,45.23-11.19-31.98-21.5-51.07-3.3-8.03,3.74,1.5,7.66-.35,1.59-.41,2.17,1.64,2.71,3.08,.55,1.48-.5,4.67,2.19,3.93,3.03-.39,4.17-3.95,4.17-7.22,4.19,6.82,18.89,24.62,20.85,20.04Z"/><path class="cls-1" d="M669.23,362.69c12.54-36.84,27.59-84.48-.65-116.13,3,8.8,4.43,70.72-7.43,55.12-19.18,59.04,30.44-89.92-38.83-86.27-34.9,6.78-64.22,14.45-97.87-2.83-11.28-.93-44.13-27.64-14.27-13.61-2.14-3.96-.3-4.6,2.81-3.94,41,46.61,100.63-5.74,141.97,29.48,39.18,35.69,43.29,94.89,14.27,138.18Z"/><path class="cls-1" d="M427.92,677.56c-14.44-18.31-24.37-176.22-4.49-111.37-.93,37.12,6.75,74.4,4.49,111.37Z"/><path class="cls-1" d="M851.87,680.09c-2.23-38.08,10.33-77.71,9.77-116.65,22.44-44.32,2.29,105.74-9.77,116.65Z"/><path class="cls-1" d="M557.89,873.69c3.47,12.72-10.07,25.36-7.96,39.2,29.33-27.41,26.36-14.84,10.74,13.58-22.84,30.73-10,12.9-26,12.34-14.71,5.96,7.6-12.73,9.29-18.08,1.7-9.82-7.68,9.74-11.82,8.19,2.3-5.91,21.4-66.35,25.74-55.23Z"/><path class="cls-1" d="M645.58,794.94c-13.97,1.02-61.67-8.45-47.25-17.76,28.49,3.95,63.08-5.56,88.53,4.67-12.19,9.49-30.1,13.48-41.28,13.09Z"/><path class="cls-9" d="M821.68,788.98c11.74,14.57-23.01,33.7-39.4,24.85-18.64-6.66-32.41-21.98-42.43-38.37-5.02-13.15-44.3-49.02-32.53-48.56,26.9,25.65,83.21,129.05,114.36,62.08Z"/><path class="cls-1" d="M728.04,279.79c-11.9-58-67.68-110.02-127.42-89.24,50.69-46,124.47,38.13,127.42,89.24Z"/><path class="cls-9" d="M463.22,815.17c57.25,9.13,72.6-57.49,106.96-88.16,1.29-2.73,7.1-2.98,3.95,.84-30.62,35.68-61.13,115.97-120.12,87.22-1.96-1.32-3.61-3.2-2.04-5.36,4.72-3.4,5.44,7.41,11.25,5.46Z"/><path class="cls-1" d="M705.87,280.41c-1.48-65.07-58.97-101.19-119.48-76.96-7.8,3.22-35.05,4.7-13.34,.13-65.52,1.04,140.42-54.49,132.81,76.83Zm-125.73-77.71c-.59,.32,.55,.77,.33,.16-.05-.09-.22-.11-.33-.16Z"/><path class="cls-1" d="M697.99,333.13c-15.5-6.88,20.63-80.12-50.82-120.03,40.97,12.79,69.47,76.56,50.82,120.03Z"/><path class="cls-1" d="M670.44,172.74c18.03,1.39,82.32,20.95,67.18,39.92-22.55-12.27-46.83-27.07-67.18-39.92Z"/><path class="cls-1" d="M710.77,804.78c-9.34,9.14-32.96,1.55-36.38-9.41,16.1-10.01,38.63-18.79,36.38,9.41Z"/><path class="cls-1" d="M737.33,936.27c-8.06,17.14-33.93-33.01-35.21-42.57,6.42,.29,55.53,52.36,35.21,42.57Z"/><path class="cls-1" d="M598.82,804.14c-16.43,4.57-30.76,4.47-26.16-17.03,11.23-9.77,22.14,2.7,32.42,7.77,7.42,3.12-3.91,5.97-6.26,9.26Z"/><path class="cls-1" d="M771.63,766.94c30.6-16.47,42.18-49.36,55.53-78.61,5.8,18.1-38.47,92.63-55.53,78.61Z"/><path class="cls-1" d="M661.58,770.3c-14.72,3.65-30.23,5.26-45.91,.36,15.1-7.24,30.13-6.04,45.91-.36Z"/><path class="cls-9" d="M463.22,815.17c-19-.02,20.03-15.21,1.52-17.16-19.67,10.19,3.43-13.76,12.19-4.67,2.07,6.5-7.77,17.31-13.71,21.82Z"/><path class="cls-1" d="M819.94,289.41c-24.01,13.06-31.72,38.25-49.61,57.33,11.62-20.78,24.66-48.37,49.61-57.33Z"/><path class="cls-1" d="M684.29,188.93c20.96,11.68,38.76,32.92,42.58,49.45-11.52-18.87-27.32-34.56-42.58-49.45Z"/><path class="cls-1" d="M616.38,354.57c4.41,8.3,9.54,19,9.69,27.74-9.04-2.87-10.47-18.84-9.69-27.74Z"/><path class="cls-1" d="M523.26,280.94c-9.35-17.34-16.23-36.36-32.67-48.64,17.8,9.84,27.43,29.99,32.67,48.64Z"/><path class="cls-1" d="M626.21,977.38c.02,11.52-1.64,22.89-2.36,34.34-2.56-11.66-5.03-23.31,2.36-34.34Z"/><path class="cls-1" d="M698.21,227.98c9.44,12.07,16.4,27.02,17.93,42.25-7.13-11.31-9.6-29.9-17.93-42.25Z"/><path class="cls-1" d="M465.11,244.37c11.73,7.52,15.91,20.01,20.93,31.95-5.75-11.46-12.57-22.21-20.93-31.95Z"/><path class="cls-1" d="M735.25,896.89c-4.88-8.4-10.26-16.57-12.87-27.35,8.45,8.06,12.54,16.83,12.87,27.35Z"/><path class="cls-1" d="M720.14,959.31c-2.62-10.11-6.9-19.69-8.81-30.03,4.27,9.59,10.7,18.49,8.81,30.03Z"/><path class="cls-1" d="M736,372.63c-7.3-2.01,2.95-9.11-3.44-11.86,7.43,1.05,8.41,4.47,3.44,11.86Z"/><path class="cls-9" d="M821.68,788.98c5.42,7.68-4.24,7.42-9.1,9.38,1.92-4.42,6.29-6.12,9.1-9.38Z"/><path class="cls-1" d="M649.2,398.19c-5.28-2.17-10.07-5.43-17.15-6.94,6.73-.88,14.82-.92,17.15,6.94Z"/><path class="cls-1" d="M860.53,869.28c2.1-1.68,2.33-5.88,4.26-6.29,2.61,1.58-1.23,6.77-4.26,6.29Z"/><path class="cls-1" d="M452.72,362.5c-2.74,.33-2.22-2.65,0-2.29,2.32-.22,1.67,1.85,0,2.29Z"/><path class="cls-1" d="M698.26,227.93c-1.64-.67-2.26-2.04-3.2-4.27,2.51,1.16,2.86,2.89,3.2,4.27Z"/><path class="cls-1" d="M684.35,188.86c-.96,.02-1.93,.07-2.58-.89,1.16-.44,1.87,.55,2.58,.89Z"/><path class="cls-1" d="M725.58,361.74c.54-.02,.94,0,.35-.53-.65-.05-.86,.03-.35,.53Z"/><path class="cls-1" d="M787.19,304.94c.06,.63-.7,2-1.29,1.02-.05-.98,1.04-.82,1.29-1.02Z"/><path class="cls-1" d="M720.99,363.24l.17-.16-.17,.16Z"/><path class="cls-1" d="M523.19,281.01c.49,.24,.94,.48,.29,.87-.12-.26-.1-.89-.29-.87Z"/><path class="cls-1" d="M531.73,276.66c-.15,.53,.19,1.9-.53,1.44-.52-.71,.32-1.24,.53-1.44Z"/><path class="cls-1" d="M779.32,277.09c-.15,.43-.39,.8-.86,.43,.04-.38,.35-1.36,.86-.43Z"/><path class="cls-9" d="M673.03,586.96c-5.79-11.98,5.63-35.15,18.07-34.61,2.27,4.64,28.17-3.82,16.28-3.71-95.6-6.15,56.83-66.16,103.11,.73-27.28-4.49-56.81-9.78-83.06-.79,7.46,4.33,84.68,21.36,54.61,35.67-19.54-12.99-32.7,10.13-54.52,3-10.5-4.8-52.53,3.7-38.94-12.46-8.39-1.82-13.62,2.46-15.56,12.17Zm32.4-20.36c-13.63,7.52,.71,17.22,10.48,15.76-6.95-2.84-5.63-22.91-10.48-15.76Zm39.91,18.44c11.75,.24,25.57-13.25,6.86-15.95-1.35,4.81-2.92,9.73-7.86,12.89-2.49,1.2-1.75,3.6,1,3.06Zm1.05-12.79c-1.64-2.89-3.15-4.32-6.09-3.85,1.02,2.82,3.03,3.42,6.09,3.85Z"/><path class="cls-9" d="M571.37,547.94c24.02-11.12,57.22,36.23,38.57,30.74-2.56-1.23-14.91-10.49-11.41-2.71,16.23,13.98-43.84,6.25-52.86,9.19-13.2,3.26-19.46-12.16-28.12-11.3-59.84,25.53,7.03-38.34,53.83-25.92Zm-32.28,33.29c1-.16,2.96,1.04,3.63-.71-1.25-4.57-8.42-7.18-6.46-13.51-9.82-8.89-13.74,17.76,2.83,14.22Zm31.28-.65c14.48-.57,19.72-9.18,6.46-18.01-1.02,6.61-1.47,13-6.46,18.01Zm26.37-8.93c.13-.21,.22-.3-.1-.29l.1,.29Z"/><path class="cls-9" d="M575.86,544.99c-30.03,2.15-57.91-10-86.03-1.13-3.39,.82-19.14,6.37-14.43-.81,40.89-61.41,209.5-2.31,100.46,1.93Z"/><path class="cls-9" d="M674.83,874.77c-6.06-2.97-10.11-7.01-12.43-13.03,5.47,.89,11.14,6.66,12.43,13.03Z"/><path class="cls-9" d="M883.22,312.92c-2.71,.41-4.74-.8-6.08-2.91,2.75-.51,4.39,1.48,6.08,2.91Z"/><path class="cls-9" d="M883.16,312.97c.64-.06,2,.76,.97,1.32-.96,0-.86-.93-.97-1.32Z"/><path class="cls-9" d="M885.15,408.97c.73-.24,1.86,.62,1.05,1.23-.96,.09-.86-.89-1.05-1.23Z"/><path class="cls-9" d="M580.14,202.71c.32,.07,.42,.2,.3,.51-.29-.13-.71-.22-.3-.51Z"/><path class="cls-1" d="M745.33,585.05c-2.74,.53-3.51-1.84-1-3.06,4.95-3.17,6.51-8.1,7.86-12.9,18.71,2.7,4.88,16.2-6.86,15.95Z"/><path class="cls-1" d="M705.42,566.61c4.82-7.19,3.57,12.95,10.48,15.76-8.54,2-12.08-8.96-10.48-15.76Z"/><path class="cls-1" d="M705.42,566.61c-1.61,5.4,.98,9.82,3.32,14.29-9.3,.92-12.33-10.5-3.32-14.29Z"/><path class="cls-1" d="M746.38,572.26c-3.06-.43-5.07-1.03-6.09-3.85,2.94-.47,4.45,.96,6.09,3.85Z"/><path class="cls-1" d="M539.08,581.23c-16.57,3.53-12.65-23.11-2.83-14.22-1.96,6.34,5.2,8.94,6.46,13.51-.67,1.75-2.63,.56-3.63,.72Z"/><path class="cls-1" d="M570.36,580.59c4.99-5.01,5.44-11.4,6.46-18.01,13.27,8.84,8,17.44-6.46,18.01Z"/><path class="cls-1" d="M596.73,571.66c-.08-.24-.15-.34,.16-.26l-.16,.26Z"/></g><g><path class="cls-9" d="M413.71,567.22c-2.27-5.13-4.68-10.2-6.63-15.47-2.73-7.37-5-14.85-5.69-22.73-.22-2.5-.29-5.01-.04-7.51,.1-1.04-.14-1.47-1.09-1.87-6.46-2.73-12.88-5.53-19.32-8.57h20.11l.11-.44-33.08-19.2,.08-.2c3.03,.32,6.06,.63,9.09,.95,5.92,.62,11.84,1.25,17.75,1.88,3.29,.35,6.58,.69,9.86,1.11,1.24,.16,1.6-.09,1.41-1.44-.66-4.6-1.19-9.21-1.76-13.82,.49-.14,.51,.33,.73,.52,.26,.14,.37,.38,.43,.64,.05-.06-.02-.09-.02-.14-.11-.27,0-.56-.13-.82-1.87-6.95-3.74-13.9-5.61-20.85-.05-.17-.07-.35,.09-.61l4.11,7.86c.09,.06,.18,.19,.3,.06,.09-.1,.05-.23-.03-.34-1.27-6.08-2.53-12.16-3.82-18.24-3.27-15.37-6.56-30.73-9.83-46.1-.42-1.98-.78-3.96-1.17-5.95-.14-.29,0-.36,.26-.34,3.63,8.07,7.28,16.14,10.9,24.21,6.85,15.25,13.69,30.5,20.53,45.75,3.84,8.54,7.69,17.08,11.49,25.64,.37,.84,.72,1.06,1.66,.97,5.19-.5,10.39-.55,15.59-.12,1.23,.1,2.09-.23,3-1.1,11.25-10.89,22.53-21.73,34.01-32.48-6.5,11.72-13,23.44-19.57,35.28,3.15,.48,6.18,.95,9.2,1.41,1.26,.19,2.54,.29,3.77,.61,2.15,.56,4.12,.18,6.18-.55,4.92-1.72,9.92-3.24,14.88-4.84,.62,.27,1.24,.55,1.14,1.41-2.84,2.01-5.68,4.02-8.73,6.19,2.23,.4,4.27,.8,6.32,1.14,9.69,1.62,19.37,3.24,29.12,4.45,9.06,1.13,18.16,2.21,27.28,1.97,21.23-.56,42.45-.05,63.67,.16,15.32,.15,30.65,.52,45.97,.8,.5,0,1,0,1.84,0-8.36-7.48-16.47-14.74-24.59-22,.49-.28,.82,.12,1.16,.29,14.65,7.13,29.3,14.28,43.94,21.43,.68,.33,1.36,.57,2.15,.57,19.87,.07,39.74,.07,59.61-.45,8.98-.24,17.96-.57,26.94-.94,.8-.03,1.28-.31,1.76-.93,6.72-8.71,13.46-17.4,20.2-26.09,.3-.39,.5-.92,1.34-1.08-.6,2.23-1.17,4.34-1.74,6.45-1.79,6.54-3.58,13.07-5.37,19.61-.14,.5-.56,1.22,.56,1.05,4.54-.69,9.06,.15,13.59,.15,10.89,.01,21.37-2.29,31.68-5.55,5.2-1.65,10.34-3.53,15.51-5.28,.73-.25,.96-.6,.99-1.39,.24-5.29,.56-10.57,.88-16.27,.53,1.56,.97,2.76,1.35,3.96,1.08,3.41,2.16,6.82,3.19,10.24,.28,.92,.63,1.11,1.59,.81,4.48-1.39,9.02-2.48,13.75-2.48,6.14,0,11.34,2.07,15.92,6.29,1.45,1.34,2.54,2.55,3.05,4.37,.16,.58,.68,.42,1.07,.43,6.48,.2,12.95,.4,19.43,.6,10.49,.32,20.99,.65,31.48,.98,7.61,.24,15.22,.48,22.83,.72,.37,.01,.74,0,1.14,.2-3.83,.69-7.66,1.38-11.49,2.07-11.56,2.07-23.11,4.13-34.67,6.19-8.12,1.45-16.25,2.9-24.38,4.29-1.22,.21-1.84,.43-1.75,1.95,.71,11.11-2.6,21.39-6.66,31.51-6.5,16.18-15.86,30.52-27.96,43.07-.58,.6-.91,1.27-1.2,2.03-1.86,4.98-3.76,9.94-5.68,14.9-.36,.93-.51,1.54,.97,1.16-1.45,.3-1.92,1.27-2.36,2.42-8.5,22.5-17.03,44.98-25.55,67.47-.08,.22-.18,.43-.28,.65-.1,.1-.2,.11-.3,.01,.62-4.53,1.23-9.07,1.87-13.6,1.27-9.06,2.56-18.12,3.85-27.18,.52-3.64,.99-7.29,1.57-10.92,.15-.92-.02-1.13-.93-1.09-5.06,.2-10.12,.36-15.17,.53-3.26,.11-6.52,.24-9.78,.32-.63,.02-1.21,.11-1.78,.36-16.67,7.39-34.04,12.56-51.84,16.36-11.37,2.43-22.86,4.18-34.41,5.51-3.81,.44-7.32,2.11-10.97,3.22-4.9,1.49-9.77,3.1-14.77,4.45,2.85-1.95,5.71-3.9,8.56-5.86l-.07-.24c-2.61,.14-5.22,.27-7.84,.41-16.55,.9-33.1,.81-49.65,.01-11.34-.55-22.65-1.45-33.93-2.7-14.28-1.58-28.49-3.69-42.61-6.35-6.5-1.22-12.98-2.53-19.43-3.99-.46-.1-.85-.02-1.32,.11-.55,.15-1.47,.58-1.77-.59-.09-.35-.63-.36-.99-.45-4.58-1.13-9.15-2.3-13.75-3.34-1.35-.3-2.75,.33-4.19-.01-1.63-.38-3.22-.8-4.56-1.78-1.1-.8-2.31-1.22-3.58-1.58-12.21-3.47-24.28-7.4-36.18-11.83-.22-.08-.43-.16-.97-.35l4.4,7.59-.24,.16c-2.16-1.66-4.36-3.26-6.46-4.99-.81-.67-1.34-.65-2.2-.12-7.88,4.92-15.79,9.79-23.69,14.68-.22,.14-.45,.26-1.02,.57,1.22-2.73,2.28-5.11,3.34-7.5,2.47-5.55,4.93-11.1,7.44-16.63,.38-.83,.33-1.22-.57-1.55-2.1-.78-4.04-1.88-6.37-2.16-3.27-.38-5.89-2.48-8.57-4.18-3.39-2.15-6.99-3.85-10.52-5.73-3.24-1.72-6.03-4.21-9.27-5.97-1.33-.72-2.57-1.59-3.83-2.42-.65-.43-.96-.69-1.23,.45-1.51,6.17-3.16,12.31-4.75,18.47-.09,.36-.13,.73-.5,1.06-.89-6.73-1.76-13.39-2.64-20.05-.29-2.24-.6-4.49-.86-6.74-.07-.6-.39-.9-.85-1.2-1.15-.74-2.27-1.51-3.4-2.27-.37-.52-.46-1.11-.46-1.74,0-3.38,0-6.76,0-10.13,0-.61,.03-1.22,.44-1.74Z"/><path class="cls-7" d="M413.71,567.22l.02,13.61c-5.87-3.76-11.75-7.51-17.62-11.29-8.05-5.18-16.1-10.37-24.14-15.55-.35-.23-.7-.47-.98-.88,14.24,4.7,28.48,9.41,42.72,14.11Z"/><path class="cls-7" d="M502.59,491.81l-1.14-1.41c1.94-.67,3.88-1.35,5.81-2.02l.13,.24-4.81,3.19Z"/><path class="cls-8" d="M389.82,395.62l-.26,.34c-.29-.34-.35-.72-.17-1.16,.34,.19,.35,.52,.43,.81Z"/><path class="cls-3" d="M404.38,466.24c.29,.29,.36,.62,.19,1.02-.3-.17-.39-.45-.46-.75l.27-.27Z"/><path class="cls-5" d="M405.52,480.12c.26,.24,.25,.56,.29,.87,.12,.29-.02,.34-.26,.27l-.31-.82,.28-.32Z"/><path class="cls-10" d="M830.17,679.93h.3c.05,.34-.16,.57-.39,.8-.25-.31-.16-.57,.09-.8Z"/><path class="cls-2" d="M508.51,528.5c16.42,.29,32.8,1.17,49.17,2.38,12.21,.9,24.4,2.02,36.57,3.25,6.77,.69,13.51,1.56,20.31,2.03,10.11,.69,20.22,.94,30.35,.89,16.23-.08,32.43-.83,48.63-1.81,17.7-1.08,35.4-2.14,53.1-3.04,16.68-.85,33.37-1.25,50.07-.62,16.27,.61,32.45,2.11,48.38,5.62,3.96,.87,7.87,1.94,11.8,2.97,1.38,.36,1.34,.77,.77,1.91-10.16,20.23-25.13,36.06-44.08,48.27-10.03,6.46-20.72,11.59-31.86,15.83-13.78,5.25-27.98,8.93-42.46,11.56-12.84,2.34-25.8,3.82-38.83,4.65-16.31,1.05-32.62,1.13-48.94,.47-12.85-.52-25.67-1.57-38.46-2.99-20.26-2.25-40.34-5.51-60.27-9.75-16.17-3.43-32.16-7.54-47.94-12.47-.27-.08-.53-.19-.78-.32-15.85-7.9-31.56-16.07-46.28-25.98-6.24-4.21-12.27-8.69-17.38-14.28-2.18-2.39-4.09-4.95-5.18-8.05-1.34-3.83-.58-7.16,2.41-9.93,3.36-3.12,7.55-4.6,11.83-5.84,7.11-2.06,14.42-3.02,21.77-3.66,12.41-1.08,24.84-1.29,37.29-1.08Z"/><path class="cls-4" d="M405.55,481.26l.26-.27c.27,.25,.35,.54,.22,.9-.41-.02-.38-.38-.49-.63Z"/><path class="cls-6" d="M527.56,603.23c-.41,.23-.71,.08-1.01,.01,.03-.11,.02-.28,.09-.32,.36-.22,.68-.19,.93,.31Z"/></g></svg>